<?xml version="1.0" encoding="UTF-8" standalone="no"?>
<!-- Generator: Adobe Illustrator 13.0.2, SVG Export Plug-In . SVG Version: 6.00 Build 14948)  -->

<svg
   xmlns:dc="http://purl.org/dc/elements/1.1/"
   xmlns:cc="http://creativecommons.org/ns#"
   xmlns:rdf="http://www.w3.org/1999/02/22-rdf-syntax-ns#"
   xmlns:svg="http://www.w3.org/2000/svg"
   xmlns="http://www.w3.org/2000/svg"
   xmlns:sodipodi="http://sodipodi.sourceforge.net/DTD/sodipodi-0.dtd"
   xmlns:inkscape="http://www.inkscape.org/namespaces/inkscape"
   version="1.1"
   id="Layer_1"
   x="0px"
   y="0px"
   width="1400"
   height="970"
   viewBox="0 0 1400 970"
   enable-background="new 0 0 1211.645 814.55"
   xml:space="preserve"
   inkscape:version="0.48.1 r9760"
   sodipodi:docname="ammonite_01.svg"
   inkscape:export-filename="/Users/su_huynh/Documents/Art/Khủng Long Bé/ammonite_01.png"
   inkscape:export-xdpi="119.97389"
   inkscape:export-ydpi="119.97389"><metadata
   id="metadata10686"><rdf:RDF><cc:Work
       rdf:about=""><dc:format>image/svg+xml</dc:format><dc:type
         rdf:resource="http://purl.org/dc/dcmitype/StillImage" /><dc:title /></cc:Work></rdf:RDF></metadata><defs
   id="defs10684"><inkscape:perspective
     sodipodi:type="inkscape:persp3d"
     inkscape:vp_x="0 : 500 : 1"
     inkscape:vp_y="0 : 1000 : 0"
     inkscape:vp_z="1400 : 500 : 1"
     inkscape:persp3d-origin="700 : 333.33333 : 1"
     id="perspective11876" /></defs><sodipodi:namedview
   pagecolor="#ffffff"
   bordercolor="#666666"
   borderopacity="1"
   objecttolerance="10"
   gridtolerance="10"
   guidetolerance="10"
   inkscape:pageopacity="0"
   inkscape:pageshadow="2"
   inkscape:window-width="1013"
   inkscape:window-height="638"
   id="namedview10682"
   showgrid="false"
   inkscape:zoom="0.32000001"
   inkscape:cx="1267.943"
   inkscape:cy="308.80521"
   inkscape:window-x="218"
   inkscape:window-y="58"
   inkscape:window-maximized="0"
   inkscape:current-layer="layer2"
   showguides="true"
   inkscape:guide-bbox="true" />

<g
   inkscape:groupmode="layer"
   id="layer2"
   inkscape:label="Màu"
   transform="translate(0,155.45001)"><path
     style="fill:#ff534f;fill-opacity:1;stroke:none"
     d="M 110.48543,686.22136 C 44.696025,684.97568 -5.2514669,575.38344 34.250485,528.22719 26.846901,395.02481 208.19429,286.01215 325.93203,398.95923 c 20.36124,12.85973 42.89327,25.04759 63.32888,38.68799 49.37192,32.09175 91.00784,79.80491 122.46968,130.37241 57.45815,-21.24812 89.37161,-67.57061 157.28515,-95.2572 41.60321,-16.96055 51.84344,3.73599 77.53494,11.07642 32.38507,57.31548 99.37572,71.41947 148.42403,104.11834 70.83338,149.57642 -29.96512,320.77106 -179.438,341.15372 C 584.70219,953.67486 491.8663,876.50778 427.5498,798.40916 380.61148,769.69792 358.73033,722.27352 341.15372,683.2144 c -0.29571,-22.64034 -3.75795,-43.71716 -6.71829,-65.42632 16.30244,-33.55489 5.874,-48.58706 -21.76165,-46.47157 -16.30119,-41.24223 -40.18927,-42.21458 -70.71068,-32.04077 10.67061,19.23241 25.70401,37.40398 43.16962,43.2034 17.01794,5.65077 35.84031,-8.43944 52.1552,-17.41263 22.85663,24.44194 -17.78112,51.36613 -35.66268,58.17816 -24.63614,6.15841 -57.87843,-4.81079 -70.71068,-9.94369 -10.08857,18.32716 -24.87965,19.89905 -36.46019,26.5165 32.04609,32.59265 59.45724,10.35347 72.92038,-16.57281 84.07715,7.11825 11.94418,86.18815 -58.55728,80.65436 -2.31664,16.86509 5.04415,31.10478 16.67423,42.02094 12.9886,12.19129 42.00617,2.12766 47.40732,23.16547 -0.57792,50.30731 -75.11295,22.27767 -100.54174,9.94369 -39.72313,-19.26731 -52.81934,-52.97674 -61.87185,-92.80777 z"
     id="path15111"
     inkscape:connector-curvature="0"
     transform="translate(0,-185.45001)"
     sodipodi:nodetypes="ccccccscccccccsccccccscsc" /><path
     style="fill:#ffebe7;fill-opacity:1;stroke:none"
     d="m 711.1648,934.20942 c 82.34346,72.64328 156.11319,46.74832 247.49788,25.06308 C 1227.6412,895.44492 1391.2421,666.67085 1381.6021,414.15059 1373.1732,193.35475 1240.8557,56.727335 1030.719,57.001745 847.30084,57.241264 739.51023,192.11056 723.69634,373.42309 c -9.72329,111.48137 97.99727,171.49751 167.60932,209.90327 99.03116,197.46243 -75.33249,325.87456 -173.87509,363.4146"
     id="path15043"
     inkscape:connector-curvature="0"
     transform="translate(0,-185.45001)"
     sodipodi:nodetypes="csssscc" /><path
     style="fill:#e4afad;fill-opacity:1;stroke:none"
     d="m 908.53125,85.1875 c -73.78358,33.20261 -137.6412,106.7934 -167.875,192.5 -44.25193,125.44515 -6.11826,244.1943 150.65625,296.25 28.20746,41.84949 29.8019,86.60418 29.09375,135.625 -18.03541,76.89248 -124.66406,240.20424 -215.9375,230.625 287.73636,103.2877 594.45945,-116.47631 653.50005,-372.15625 -82.124,166.08675 -217.1912,331.64448 -455.57936,329.86254 -26.84344,-0.20065 -22.50474,-10.01021 -16.25382,-18.10301 43.84064,-56.75863 79.31236,-106.09072 60.36025,-218.23938 -2.61073,-15.44894 20.58208,-18.34643 27.625,-11.28125 2.03647,2.0429 20.5043,50.8556 18.87618,92.62579 24.40135,-36.19776 6.5616,-90.28806 11.17285,-97.83531 10.7629,-17.61566 23.5128,-25.90945 37.1112,-24.34922 7.9432,0.91137 51.0555,31.48675 54.4893,72.51201 23.3346,-46.10759 -24.0946,-87.01363 -21.2914,-95.31362 7.3638,-21.80331 11.5858,-32.28508 27.3371,-34.1146 6.0357,-0.70106 53.6374,10.03638 69.284,43.60149 11.345,-35.10826 -42.8495,-65.00415 -43.6268,-71.41067 -1.4875,-12.26003 10.0246,-29.92798 27.8572,-33.37164 12.293,-2.3739 30.6134,-1.59367 66.8652,10.23058 -22.432,-25.21201 -55.6668,-39.91621 -58.993,-45.54637 -2.9195,-4.94175 -7.8573,-38.27982 7.0499,-38.40153 16.0335,-0.13091 51.3041,-12.73956 47.0401,-14.24305 -10.3211,-3.63929 -46.717,-2.95913 -48.5246,-4.67106 -8.1228,-7.69258 -14.1112,-28.38589 -6.6108,-35.5254 2.6308,-2.50425 47.0683,-23.55654 49.9495,-42.93282 -14.0059,11.44507 -53.7187,23.6827 -56.6542,23.34252 -10.2485,-1.18765 -24.2479,-3.98434 -18.5738,-16.64875 1.6504,-3.68357 23.9009,-15.03492 23.4507,-45.88294 -15.4663,22.60362 -39.8554,38.17817 -42.7737,37.33366 -8.4768,-2.45308 -13.5364,8.7733 -20.801,-2.65525 -1.8366,-2.88934 9.5045,-23.13279 -3.3958,-49.23876 -4.736,23.20358 -17.3799,48.04068 -21.3902,51.00604 -8.3399,6.16677 -21.5721,5.80704 -27.5042,8.06448 -3.4025,1.29481 -25.3393,-50.50903 -28.6717,-48.97983 -7.0994,3.25785 5.0505,50.96924 4.5071,59.53368 -0.5566,8.77165 -6.7125,16.4541 -21.18523,18.33536 -10.22866,1.32958 -27.03445,-5.26186 -50.8727,-25.82989 4.25745,28.3972 31.6347,36.9168 30.46672,46.69681 -0.92901,7.77901 -0.43774,8.02972 -5.54159,13.0205 -2.83173,2.76899 -22.39865,12.74466 -52.68828,12.0866 13.43313,8.68082 26.46665,8.3622 44.22007,9.47036 4.18875,0.26146 5.87962,11.64091 2.33626,17.19064 -1.37078,2.14698 -8.46075,10.54179 -18.66972,15.91436 10.83404,5.46621 25.79394,-5.31608 27.43466,-3.62149 4.629,4.78097 11.82627,6.19443 13.47585,10.95183 2.60312,7.50743 -1.81498,14.64689 -0.15493,14.40156 12.61419,-1.86419 13.38319,-15.99732 15.27369,-16.15942 4.5485,-0.39 9.1937,-1.45061 13.7219,-3.18601 2.1265,-0.81494 7.818,14.79413 9.8708,13.68115 2.4933,-1.3518 -1.7132,-15.90579 0.5992,-17.69866 2.3564,-1.82702 5.2664,-6.77349 9.1015,-7.14206 4.082,-0.39229 17.3831,3.35416 15.5604,1.9236 -4.9899,-3.91637 -12.2835,-10.51832 -12.1326,-12.58311 0.3,-4.10379 1.6948,-4.65199 4.9361,-6.19487 2.2956,-1.09266 4.1743,-6.99183 3.8491,-7.97273 -0.675,-2.03639 -6.3297,2.26327 -10.1366,-2.02737 -0.737,-0.83066 -6.4438,-0.86458 -6.0802,-3.29188 0.1379,-0.92103 4.1677,-7.75073 0.091,-9.81577 -0.8306,-0.42077 -1.8293,7.46617 -5.2372,8.3753 -2.4819,0.66213 -5.8692,0.61964 -7.2414,0.9027 -2.0879,0.43069 -5.183,5.92822 -5.3034,8.56176 -0.131,2.86654 2.9051,2.79922 5.3897,0.95393 1.4855,4.43629 -4.9627,7.25803 -7.8831,8.59472 -6.6113,3.02606 -12.9261,-7.06117 -12.125,-13.90625 4.9265,-42.09762 65.94,-57.27737 87.375,-45.875 46.7919,24.89106 26.3047,99.4901 -30.5625,141.875 C 999.24904,558.95971 914.66658,528.45626 869.375,505 733.02215,434.38361 772.59985,189.55733 908.53125,85.1875 z"
     transform="translate(0,-185.45001)"
     id="path15047"
     inkscape:connector-curvature="0"
     sodipodi:nodetypes="csccccsssscsscsscsscssssscsscsscssssscsscsscsssssssssssssssssscsssssc" /><path
     style="color:#000000;fill:#9b586e;fill-opacity:1;fill-rule:nonzero;stroke:none;stroke-width:1px;marker:none;visibility:visible;display:inline;overflow:visible;enable-background:accumulate"
     d="m 843.00387,908.29709 c -1.84981,12.81936 22.31422,19.94901 44.38373,21.77348 64.09551,5.29872 223.7793,-34.39961 290.3871,-83.64532 -84.221,79.55131 -359.69782,202.04235 -466.2485,88.38834 81.48195,16.24201 205.57195,-139.4641 205.01527,-307.9263 -0.0191,-5.76856 13.64882,-1.4898 14.2198,-7.21295 39.79681,160.9435 -67.98806,266.80108 -87.7574,288.62275 z"
     id="path15240"
     inkscape:connector-curvature="0"
     transform="translate(0,-185.45001)"
     sodipodi:nodetypes="csccscc" /><path
     style="fill:#ffffff;stroke:none"
     d="m 797.19979,634.02903 c 73.69564,1.24281 119.78896,-46.7413 125.16354,-108.54892 2.03502,-49.60387 -26.51444,-113.6071 -73.10436,-127.37882 45.09306,71.67709 8.96223,217.84641 -52.05918,235.92774 z"
     id="path11501"
     inkscape:connector-curvature="0"
     sodipodi:nodetypes="cccc" /><path
     style="color:#000000;fill:#c2d0dd;fill-opacity:1;fill-rule:nonzero;stroke:none;stroke-width:1px;marker:none;visibility:visible;display:inline;overflow:visible;enable-background:accumulate"
     d="m 778.92232,817.69903 c 45.76886,-6.82974 85.52008,-25.35246 109.71071,-69.67658 11.19054,-20.50426 23.35013,-49.41924 21.76695,-82.79332 8.01928,17.70127 3.31457,86.0013 3.31457,100.54175 -38.89317,44.9489 -80.60698,67.40965 -134.79223,51.92815 z"
     id="path17508"
     inkscape:connector-curvature="0"
     transform="translate(0,-185.45001)"
     sodipodi:nodetypes="csccc" /><path
     style="color:#000000;fill:#daa7ff;fill-opacity:1;fill-rule:nonzero;stroke:none;stroke-width:1px;marker:none;visibility:visible;display:inline;overflow:visible;enable-background:accumulate"
     d="m 878.90625,573.90625 c 17.19212,26.02849 28.62377,72.03823 8.59375,128.125 -15.18503,42.52015 -37.75648,64.91303 -58.78906,80.66406 -4.74279,-1.26487 -13.45752,2.95245 -13.86719,2.92969 31.97664,-23.24786 52.73106,-45.26524 67.64515,-86.05528 21.26542,-58.16097 6.36948,-109.45617 -14.52015,-133.47597 4.93708,2.48722 10.62784,3.13872 10.9375,7.8125 z"
     id="path24967"
     inkscape:connector-curvature="0"
     transform="translate(0,-155.45001)"
     sodipodi:nodetypes="csccscc" /><path
     style="color:#000000;fill:#b12f32;fill-opacity:1;fill-rule:nonzero;stroke:none;stroke-width:1px;marker:none;visibility:visible;display:inline;overflow:visible;enable-background:accumulate"
     d="m 729.6875,559.375 c -28.18539,21.25849 -89.85861,78.12297 -80.92685,149.19462 2.05344,16.33965 13.53824,42.73625 29.33183,43.78924 C 681.86606,602.20819 803.36542,570.92439 868.75,582.8125 821.9939,552.98933 781.98919,516.73379 756.25,478.125 c -27.36882,-17.04541 -62.14207,-7.48774 -85.9375,-7.8125 2.74732,24.04179 31.35071,36.65586 58.7903,50.2923 16.78419,8.34111 9.20398,32.26921 0.5847,38.7702 z"
     id="path15170"
     inkscape:connector-curvature="0"
     transform="translate(0,-185.45001)"
     sodipodi:nodetypes="ssccccss" /><path
     style="fill:#b58ccf;fill-opacity:1;stroke:none;color:#000000;fill-rule:nonzero;stroke-width:1px;marker:none;visibility:visible;display:inline;overflow:visible;enable-background:accumulate"
     d="m 717.44956,604.12269 c 18.39519,21.03312 50.62484,36.2204 94.14957,29.90634 65.49782,-31.69876 114.19801,-148.92325 62.02796,-217.09782 -18.94689,-21.42669 -41.47301,-24.08254 -74.21201,-24.36812 50.01898,71.1432 -13.08773,196.18927 -81.96552,211.5596 z"
     id="path11499"
     inkscape:connector-curvature="0"
     sodipodi:nodetypes="ccccc" /><path
     style="color:#000000;fill:#9057a0;fill-opacity:1;fill-rule:nonzero;stroke:none;stroke-width:1px;marker:none;visibility:visible;display:inline;overflow:visible;enable-background:accumulate"
     d="m 835.26989,557.3369 c 13.82156,2.29648 23.63986,10.10651 32.5932,16.57282 -12.57145,-4.24717 -20.52437,-8.83884 -34.25049,-8.83884 16.07411,2.29425 28.47488,9.8431 40.87962,17.67767 -10.33842,-5.91948 -20.20121,-6.0767 -32.04078,-6.0767 9.50687,-0.79737 15.33806,3.14749 22.64951,6.62913 -9.42907,-2.60557 -15.75293,1.14194 -23.20194,3.31456 17.35825,0.5071 31.78014,4.84499 44.19418,13.81068 -7.06962,-1.52894 -13.98178,-4.16475 -20.99224,-6.0767 8.75495,1.9459 15.323,8.84885 20.99224,13.25825 -10.37925,-7.28125 -29.33336,-4.97184 -38.66991,-4.97184 15.51556,1.0503 27.65554,5.68944 39.77476,12.70582 -3.58543,-3.97428 -8.34673,-1.8145 -12.70582,-2.76213 7.55599,1.47097 13.08974,6.78364 18.23009,10.49612 -10.43915,-4.09515 -28.34769,-4.97185 -35.90776,-4.97185 6.55444,-1.27848 10.40292,1.61099 15.46796,2.76214 -6.11016,1.34897 -13.26107,2.04194 -18.78253,2.76213 13.59224,-0.58704 25.23126,5.43408 35.35534,10.49612 -8.82411,-3.81867 -20.92142,-3.86699 -28.72621,-3.86699 10.68814,4.52105 20.22957,7.51043 30.93592,9.94369 -9.94116,-1.40662 -23.70612,-1.10486 -32.04078,-1.10486 11.28567,1.17662 21.83324,6.75324 30.3835,12.1534 -11.92726,-5.00226 -27.12085,-4.92155 -38.6699,-4.41942 15.86609,-1.45862 29.11978,6.94421 38.11747,12.1534 -8.27685,-6.26266 -19.03984,-5.52427 -27.06893,-5.52427 10.49836,3.56775 20.05391,9.31814 27.62136,14.36311 -3.6044,-2.09273 -7.34323,-2.20297 -11.04854,-3.31457 4.17324,2.05341 6.47049,5.32864 9.39126,7.73398 -13.05234,0.52516 -24.76132,-4.69404 -35.90777,-7.73398 10.97544,1.99137 21.10323,8.0657 30.3835,12.70583 -11.28443,0.46402 -19.82376,-3.10922 -28.72622,-6.0767 7.93058,5.77585 20.70113,9.72757 27.06893,12.1534 -8.69226,-1.38868 -23.14802,-2.03149 -27.06893,-2.20971 8.93337,1.29418 17.3881,5.22981 25.41165,8.28641 -12.31269,2.47557 -23.3456,-0.9686 -32.04077,-3.86699 9.41173,5.26616 24.71906,12.35953 29.83106,14.91553 -10.29365,-1.08299 -18.29177,-4.44409 -26.5165,-7.73398 9.50947,3.60435 18.48236,7.73701 27.06893,11.60097 -12.68272,1.41987 -23.14158,-2.3503 -34.25048,-5.52427 8.77601,4.2812 19.58276,9.83423 25.96407,12.70582 -11.64465,1.17251 -20.47807,-1.45161 -29.27864,-4.97184 7.85912,7.54654 18.30774,11.70207 27.62136,14.3631 -7.1193,0.92704 -15.00452,-1.46045 -20.99223,-2.76213 5.08224,7.26768 8.95895,7.71718 16.02039,11.60097 -14.35872,1.01551 -26.52128,-3.11405 -36.4602,-9.39126 4.94613,1.91493 11.02673,8.26459 13.25826,10.49611 -5.71955,-1.56467 -15.48012,-2.90176 -18.78253,-3.31456 8.63191,11.8205 20.15067,16.29229 32.59321,20.43981 -10.15452,1.18684 -19.56638,-2.23118 -27.06894,-4.41942 2.91495,6.62289 9.42857,7.67638 14.36311,10.49612 -10.57206,-1.69076 -19.6943,-5.70395 -28.17378,-9.94369 6.22735,10.85495 18.31175,14.83771 25.41165,17.67767 -13.08133,1.81321 -24.73797,-2.95617 -35.35534,-7.73398 6.31249,5.71206 12.07186,8.60033 18.23009,12.70582 -12.68308,2.48378 -26.1886,-5.58735 -32.04077,-9.39126 5.71453,10.98764 16.70339,15.60958 23.75437,18.78252 -6.77442,0.0707 -12.46244,-3.72984 -17.67767,-6.0767 0.32478,4.2768 5.37119,5.37119 7.73398,7.73398 -14.34099,-4.27875 -25.10409,-11.54266 -35.90777,-20.4398 4.07411,12.18443 12.66933,16.1802 21.54466,22.09709 -4.70714,-1.9029 -12.16539,-3.82004 -14.36311,-4.41942 3.6325,5.76359 11.60336,8.63694 12.70583,9.39126 -13.73719,-1.16916 -24.14928,-9.14599 -33.69806,-16.57282 0.85217,5.97897 5.33644,8.18402 8.83884,12.1534 -14.44737,0.46951 -25.51982,-10.81902 -32.04078,-16.57281 65.00033,-3.52474 107.69798,-60.58149 111.59029,-119.8767 2.88326,-43.9234 -7.99139,-71.43262 -38.66991,-95.29369 18.1173,0.24365 34.65059,1.10226 45.16093,8.28641 -4.26036,-2.06157 -11.30511,0.86415 -12.01529,0.82864 z"
     id="path24997"
     inkscape:connector-curvature="0"
     transform="translate(0,-155.45001)"
     sodipodi:nodetypes="cccccccccccccccccccccccccccccccccccccccccccccccccccccccccccccccccsccc" /><path
     style="fill:#6e357e;fill-opacity:1;stroke:none;color:#000000;fill-rule:nonzero;stroke-width:1px;marker:none;visibility:visible;display:inline;overflow:visible;enable-background:accumulate"
     d="m 718.35937,791.79688 c 54.31245,0.37367 95.45138,-40.17156 109.76563,-76.17188 21.21258,-53.34961 13.26941,-112.8358 -32.03125,-139.0625 1.8409,1.67203 4.12172,-0.58882 5.46875,-0.78125 47.18467,27.28309 51.08878,97.48321 30.85937,142.96875 -24.18953,54.38981 -77.87697,79.94387 -107.8125,75.78125 -0.67799,-4.89374 -4.06918,2.06343 -6.25,-2.73437 z"
     id="path17524"
     inkscape:connector-curvature="0"
     transform="translate(0,-185.45001)"
     sodipodi:nodetypes="csccscc" /><path
     style="fill:#1e232d;fill-opacity:1;stroke:none"
     d="m 800.52271,394.77836 c -57.4028,-5.694 -117.41809,46.68263 -120.73298,110.7642 -2.82702,54.65047 24.56316,87.28822 42.28312,102.03154 52.65952,-1.27512 89.66221,-37.60506 107.87611,-77.03807 23.4054,-50.67257 6.27765,-122.46996 -29.42625,-135.75767 z"
     id="path11493"
     inkscape:connector-curvature="0"
     sodipodi:nodetypes="cscsc" /><path
     sodipodi:type="arc"
     style="opacity:0.98999999;color:#000000;fill:#ffffff;fill-opacity:1;fill-rule:nonzero;stroke:none;stroke-width:9;marker:none;visibility:visible;display:inline;overflow:visible;enable-background:accumulate"
     id="path11495"
     sodipodi:cx="660.1546"
     sodipodi:cy="612.95917"
     sodipodi:rx="31.013975"
     sodipodi:ry="31.013975"
     d="m 691.16858,612.95917 c 0,17.12854 -13.88543,31.01397 -31.01398,31.01397 -17.12854,0 -31.01397,-13.88543 -31.01397,-31.01397 0,-17.12855 13.88543,-31.01398 31.01397,-31.01398 17.12855,0 31.01398,13.88543 31.01398,31.01398 z"
     transform="translate(117.10762,-131.78472)" /><path
     sodipodi:type="arc"
     style="opacity:0.98999999;color:#000000;fill:#ffffff;fill-opacity:1;fill-rule:nonzero;stroke:none;stroke-width:9;marker:none;visibility:visible;display:inline;overflow:visible;enable-background:accumulate"
     id="path11497"
     sodipodi:cx="653.50873"
     sodipodi:cy="559.79236"
     sodipodi:rx="8.8611355"
     sodipodi:ry="8.8611355"
     d="m 662.36986,559.79236 c 0,4.89387 -3.96726,8.86113 -8.86113,8.86113 -4.89387,0 -8.86114,-3.96726 -8.86114,-8.86113 0,-4.89387 3.96727,-8.86114 8.86114,-8.86114 4.89387,0 8.86113,3.96727 8.86113,8.86114 z"
     transform="matrix(1.4375,0,0,1.4375,-191.445,-379.47135)" /><path
     style="color:#000000;fill:#9b586e;fill-opacity:1;fill-rule:nonzero;stroke:none;stroke-width:1px;marker:none;visibility:visible;display:inline;overflow:visible;enable-background:accumulate"
     d="m 788.5,190.65625 c -104.89595,146.36374 -66.33363,293.84296 37,355.0625 44.55091,26.39399 75.89651,64.62301 94.53153,101.61404 16.99447,-45.05693 59.39982,-34.6728 62.85285,-17.17948 3.5434,17.95117 10.02279,-14.81714 13.57683,-18.12445 17.84499,-16.60611 36.75059,-28.82372 48.45079,-17.634 27.6375,26.43175 9.5842,-17.98636 15.4644,-22.74651 14.3071,-11.58193 18.5718,-36.59335 48.7123,-28.76296 26.8528,6.97625 -1.8545,-18.05636 -0.8641,-24.19415 3.1398,-19.45862 22.1273,-33.86266 40.3654,-37.33279 4.4714,-0.85076 -14.9175,-13.23351 -13.9032,-20.26451 1.9957,-13.83274 -0.3255,-32.94374 10.9884,-36.22972 29.37,-8.53014 1.8789,-10.50009 1.6373,-16.11422 -0.3602,-8.37232 -8.1481,-16.78381 -4.5503,-23.72691 7.6367,-14.73752 18.0828,-17.58957 -0.1621,-17.86215 -10.7071,-0.15997 -15.4947,-7.22114 -26.7401,-13.42298 -2.6307,-1.45084 9.9619,-12.03045 6.2041,-10.81961 -14.2303,4.58526 -28.6216,2.97727 -33.8141,2.51915 -3.5947,-0.31715 1.9393,-6.20727 -0.5101,-15.757 -7.5556,10.30551 -15.3733,15.74877 -17.9236,16.04585 -9.7577,1.13663 -14.9356,1.42073 -23.8419,5.10648 -1.6973,0.7024 -9.5069,-10.68011 -10.1535,-8.97125 -4.8661,12.85852 -12.3881,20.51513 -18.2857,24.69501 -4.9243,3.4901 -16.2317,9.48353 -21.79666,8.12082 -13.63638,-3.33919 -0.24488,8.92092 -3.28589,13.9181 -2.71304,4.45823 -9.93353,16.09426 -18.02692,18.34647 -9.93199,2.76386 3.50367,6.29874 1.71505,15.5008 -1.39141,7.15853 -6.77912,18.15659 -5.10953,21.96347 1.46411,3.33835 7.51809,1.84885 10.96174,4.02837 8.62225,5.45708 9.65849,15.55677 15.68219,12.57855 8.70752,-4.30514 14.38482,-5.34902 18.75012,-7.73192 1.5133,-0.82606 5.5434,3.46748 6.9824,1.59713 4.6009,-5.97995 5.2804,-13.65133 15.2902,-14.72236 4.7641,-0.50975 -1.3588,-9.49395 2.1918,-13.87041 1.9163,-2.3621 -7.8321,-0.73054 -8.0334,-6.62625 -0.1608,-4.70688 -6.7246,1.56293 -11.1345,-0.91054 -1.9166,-1.07501 -2.5277,4.04431 -0.1306,3.47076 1.4925,-0.35712 1.9714,2.30718 1.5554,4.82168 -0.9579,5.78854 -5.9939,8.99412 -10.8341,10.61499 -8.5857,2.87516 -12.75537,-3.06151 -15.65712,-7.66752 -6.73849,-10.69623 -2.67226,-34.76231 10.28212,-45.73873 21.4716,-18.19318 53.8525,-27.34268 70.625,-25.28125 60.6374,7.45264 51.3915,102.3781 0.1563,151.53125 -11.2553,10.79782 -29.3821,25.07179 -44.375,31.5 -68.56055,29.39523 -132.40952,4.09084 -174.06255,-16.8125 C 763.59031,477.16554 716.62879,360.79283 788.5,190.65625 z"
     transform="translate(0,-185.45001)"
     id="path15093"
     inkscape:connector-curvature="0"
     sodipodi:nodetypes="cscssssssssssssssscssssssssssssssssssssssssssc" /><path
     style="color:#000000;fill:#4b1252;fill-opacity:1;fill-rule:nonzero;stroke:none;stroke-width:1px;marker:none;visibility:visible;display:inline;overflow:visible;enable-background:accumulate"
     d="m 873.62708,248.56962 c -44.79411,39.00166 -126.16463,17.97783 -143.58171,-14.45568 -4.01134,-11.21151 -8.61544,-21.22484 -10.11899,-45.71633 22.18346,49.82909 90.63616,85.39783 153.7007,60.17201 z"
     id="path11554"
     inkscape:connector-curvature="0"
     sodipodi:nodetypes="cccc" /><path
     style="color:#000000;fill:#31122f;fill-opacity:1;fill-rule:nonzero;stroke:none;stroke-width:1px;marker:none;visibility:visible;display:inline;overflow:visible;enable-background:accumulate"
     d="m 913.90533,337.92485 c -7.72272,19.33958 -25.99245,24.76809 -56.97813,30.51153 -13.78434,-4.13744 -22.0788,-12.60584 -34.41236,-19.42672 39.42442,14.0788 79.10005,2.23851 91.39049,-11.08481 z"
     id="path11556"
     inkscape:connector-curvature="0"
     sodipodi:nodetypes="cccc" /><path
     style="color:#000000;fill:#31122f;fill-opacity:1;fill-rule:nonzero;stroke:none;stroke-width:1px;marker:none;visibility:visible;display:inline;overflow:visible;enable-background:accumulate"
     d="m 986.60656,350.47268 c 5.45026,13.88746 2.45974,22.26118 -4.36398,31.67006 -4.46462,-0.19458 -12.80298,0.21219 -17.82275,0.45518 14.32876,-4.69549 20.79542,-24.99012 22.18673,-32.12524 z"
     id="path11558"
     inkscape:connector-curvature="0"
     sodipodi:nodetypes="cccc" /><path
     style="color:#000000;fill:#4b1252;fill-opacity:1;fill-rule:nonzero;stroke:none;stroke-width:1px;marker:none;visibility:visible;display:inline;overflow:visible;enable-background:accumulate"
     d="m 1048.4329,350.90366 c 3.6948,-4.95152 0.2234,-16.64903 -2.9035,-26.02959 7.8229,4.48927 10.9418,8.68908 13.2639,14.49438 -0.1595,9.21833 -8.3587,9.53356 -10.3604,11.53521 z"
     id="path11732"
     inkscape:connector-curvature="0"
     sodipodi:nodetypes="cccc" /><path
     style="color:#000000;fill:#4b1252;fill-opacity:1;fill-rule:nonzero;stroke:none;stroke-width:1px;marker:none;visibility:visible;display:inline;overflow:visible;enable-background:accumulate"
     d="m 1076.4484,285.98374 c 7.9389,2.2665 17.6723,4.01688 21.599,2.76911 -0.2509,2.44027 -3.721,7.73626 -4.1536,8.86114 -5.4437,-3.29962 -11.3364,-8.22964 -17.4454,-11.63025 z"
     id="path11740"
     inkscape:connector-curvature="0"
     sodipodi:nodetypes="cccc" /><path
     style="color:#000000;fill:#4b1252;fill-opacity:1;fill-rule:nonzero;stroke:none;stroke-width:1px;marker:none;visibility:visible;display:inline;overflow:visible;enable-background:accumulate"
     d="m 1092.6633,240.81613 c 10.5446,0.36539 22.7499,-0.70527 26.0296,-12.18406 0.564,2.84807 0.8213,5.43429 1.1076,8.58423 -4.666,13.08621 -19.6679,8.52593 -27.1372,3.59983 z"
     id="path11748"
     inkscape:connector-curvature="0"
     sodipodi:nodetypes="cccc" /><path
     style="color:#000000;fill:#4b1252;fill-opacity:1;fill-rule:nonzero;stroke:none;stroke-width:1px;marker:none;visibility:visible;display:inline;overflow:visible;enable-background:accumulate"
     d="m 1077.235,-127.27543 c 42.1023,23.31622 53.7341,109.95153 41.8256,159.96715 -6.8514,-72.033342 -46.1404,-128.69825 -77.0706,-158.40071 12.7332,-4.1771 24.3,-0.13883 35.245,-1.56644 z"
     id="path11758"
     inkscape:connector-curvature="0"
     sodipodi:nodetypes="cccc" /><path
     style="color:#000000;fill:#4b1252;fill-opacity:1;fill-rule:nonzero;stroke:none;stroke-width:1px;marker:none;visibility:visible;display:inline;overflow:visible;enable-background:accumulate"
     d="M 890.60569,-84.657071 C 915.38265,-69.637699 962.09493,32.34758 980.75484,71.37092 941.22975,44.52274 879.70754,-43.831992 871.80839,-72.908753 c 7.59712,-2.993417 11.9164,-7.619774 18.7973,-11.748318 z"
     id="path11766"
     inkscape:connector-curvature="0"
     sodipodi:nodetypes="cccc" /><path
     style="color:#000000;fill:#4b1252;fill-opacity:1;fill-rule:nonzero;stroke:none;stroke-width:1px;marker:none;visibility:visible;display:inline;overflow:visible;enable-background:accumulate"
     d="m 768.66986,32.23196 c 42.20358,50.2941 81.63604,99.68778 139.56289,111.87184 -55.32127,6.21453 -143.7508,-40.56734 -151.74694,-84.18079 -1.10283,-13.18656 7.22521,-17.77336 12.18405,-27.69105 z"
     id="path11774"
     inkscape:connector-curvature="0"
     sodipodi:nodetypes="cccc" /><path
     style="color:#000000;fill:#4b1252;fill-opacity:1;fill-rule:nonzero;stroke:none;stroke-width:1px;marker:none;visibility:visible;display:inline;overflow:visible;enable-background:accumulate"
     d="m 1208.135,-72.646547 c 39.697,23.949047 29.8319,87.880897 26.5834,128.486477 19.5032,-27.01773 28.9485,-73.76544 18.8299,-100.795426 -11.69,-10.295185 -25.9425,-17.40181 -45.4133,-27.691051 z"
     id="path11810"
     inkscape:connector-curvature="0"
     sodipodi:nodetypes="cccc" /><path
     style="color:#000000;fill:#4b1252;fill-opacity:1;fill-rule:nonzero;stroke:none;stroke-width:1px;marker:none;visibility:visible;display:inline;overflow:visible;enable-background:accumulate"
     d="m 904.78499,779.32016 c 54.0823,-15.0656 108.96591,-83.27675 116.15851,-156.36755 21.2979,54.43023 -1.0707,113.61794 -29.30227,139.05239 -16.27462,19.01312 -65.76267,15.71917 -86.85624,17.31516 z"
     id="path11582"
     inkscape:connector-curvature="0"
     sodipodi:nodetypes="cccc" /><path
     style="color:#000000;fill:#4b1252;fill-opacity:1;fill-rule:nonzero;stroke:none;stroke-width:1px;marker:none;visibility:visible;display:inline;overflow:visible;enable-background:accumulate"
     d="m 1167.3422,559.01074 c 24.3701,25.96165 38.2092,72.57176 30.9027,89.33891 1.9883,10.89871 -28.9907,26.47227 -37.7385,29.43124 10.3605,-32.6053 17.7638,-85.89183 6.8358,-118.77015 z"
     id="path11860"
     inkscape:connector-curvature="0"
     sodipodi:nodetypes="cccc" /><path
     style="color:#000000;fill:#4b1252;fill-opacity:1;fill-rule:nonzero;stroke:none;stroke-width:1px;marker:none;visibility:visible;display:inline;overflow:visible;enable-background:accumulate"
     d="m 1255.2097,476.19004 c 24.1891,13.34933 49.344,22.2667 57.3124,41.91666 -2.4683,5.83585 -22.3654,24.98317 -24.0831,28.41862 -2.1716,-20.70721 -17.2513,-53.29218 -33.2293,-70.33528 z"
     id="path11868"
     inkscape:connector-curvature="0"
     sodipodi:nodetypes="cccc" /><path
     style="fill:#4b12ab;fill-opacity:1;stroke:none"
     d="m 818.54741,180.97879 c -38.44594,1.46737 -63.4574,-8.41666 -88.61136,-26.58341 -2.21399,-17.70348 7.0491,-24.06699 8.86114,-32.67544 26.13293,28.80169 46.66165,42.71456 79.75022,59.25885"
     id="path14859"
     inkscape:connector-curvature="0"
     sodipodi:nodetypes="cccc" /><path
     style="color:#000000;fill:#4b12ab;fill-opacity:1;stroke:none;stroke-width:1px;marker:none;visibility:visible;display:inline;overflow:visible;enable-background:accumulate"
     d="m 885.00593,58.03053 c -26.39144,-16.19682 -71.68654,-40.51748 -81.9655,-69.78144 5.71549,-14.60033 13.30215,-13.91867 21.59902,-21.0452 17.67203,21.5782 43.94253,57.97875 60.36648,90.82664 z"
     id="path14879"
     inkscape:connector-curvature="0"
     sodipodi:nodetypes="cccc" /><path
     style="color:#000000;fill:#4b12ab;fill-opacity:1;stroke:none;stroke-width:1px;marker:none;visibility:visible;display:inline;overflow:visible;enable-background:accumulate"
     d="m 976.94021,65.150184 c 24.96829,10.645806 46.52099,57.838006 46.52099,95.257206 -22.2628,-38.52828 -60.29434,-63.713598 -75.31968,-87.503713 13.60148,-5.317334 22.95105,-5.122057 28.79869,-7.753493 z"
     id="path14887"
     inkscape:connector-curvature="0"
     transform="translate(0,-185.45001)"
     sodipodi:nodetypes="cccc" /><path
     style="fill:#4b12ab;fill-opacity:1;stroke:none"
     d="m 1146.9632,82.872455 c 23.8257,24.688565 33.9661,60.818725 38.2137,84.180785 3.5097,-18.67843 4.8752,-41.07579 -3.3229,-69.781439 -15.4226,-1.8441 -26.1099,-10.008909 -34.8908,-14.399346 z"
     id="path14895"
     inkscape:connector-curvature="0"
     transform="translate(0,-185.45001)"
     sodipodi:nodetypes="cccc" /><path
     style="color:#000000;fill:#4b1252;fill-opacity:1;fill-rule:nonzero;stroke:none;stroke-width:1px;marker:none;visibility:visible;display:inline;overflow:visible;enable-background:accumulate"
     d="m 1346.8926,267.84866 c -3.4286,23.53801 -15.1309,40.34106 -27.691,56.48974 17.0828,-5.59465 33.7157,-18.07374 39.2262,-27.42228 -3.3766,-9.64939 -7.6998,-19.69209 -11.5352,-29.06746 z"
     id="path14910"
     inkscape:connector-curvature="0"
     transform="translate(0,-185.45001)"
     sodipodi:nodetypes="cccc" /><path
     style="color:#000000;fill:#4b1252;fill-opacity:1;fill-rule:nonzero;stroke:none;stroke-width:1px;marker:none;visibility:visible;display:inline;overflow:visible;enable-background:accumulate"
     d="m 1381.0483,403.01175 c -10.227,11.00229 -22.6677,16.77964 -47.2227,26.02004 19.1253,2.37374 31.5487,4.85373 47.8716,0.19004 -2.2022,-9.55273 -0.6489,-19.31338 -0.6489,-26.21008 z"
     id="path14918"
     inkscape:connector-curvature="0"
     transform="translate(0,-185.45001)"
     sodipodi:nodetypes="cccc" /><path
     style="color:#000000;fill:#4b1252;fill-opacity:1;fill-rule:nonzero;stroke:none;stroke-width:1px;marker:none;visibility:visible;display:inline;overflow:visible;enable-background:accumulate"
     d="m 1368.4774,559.18088 c -19.8639,1.07072 -35.8191,-6.52495 -58.9316,-7.96659 20.916,14.92791 38.2722,21.07657 50.1261,28.97918 4.7866,-6.92827 7.3599,-16.05634 8.8055,-21.01259 z"
     id="path14926"
     inkscape:connector-curvature="0"
     transform="translate(0,-185.45001)"
     sodipodi:nodetypes="cccc" /><path
     style="fill:#4b12ab;fill-opacity:1;stroke:none"
     d="m 1303.6946,51.38468 c 10.3201,-4.91302 10.5305,-14.29143 15.507,-21.0452 -1.8793,-5.60264 -6.6833,-9.54749 -7.7535,-13.2917 0.2315,12.72414 -4.0875,23.33901 -7.7535,34.3369 z"
     id="path14934"
     inkscape:connector-curvature="0"
     sodipodi:nodetypes="cccc" /><path
     style="color:#000000;fill:#2d126c;fill-opacity:1;fill-rule:nonzero;stroke:none;stroke-width:1px;marker:none;visibility:visible;display:inline;overflow:visible;enable-background:accumulate"
     d="m 764.27296,300.0503 c 20.72931,13.88596 42.75916,23.8143 79.75022,22.70666 -18.40184,5.87656 -38.91517,10.83027 -59.81266,3.32293 -6.50123,-6.13609 -15.46097,-20.59373 -19.93756,-26.02959 z"
     id="path14954"
     inkscape:connector-curvature="0"
     sodipodi:nodetypes="cccc" /><path
     style="color:#000000;fill:#2d126c;fill-opacity:1;fill-rule:nonzero;stroke:none;stroke-width:1px;marker:none;visibility:visible;display:inline;overflow:visible;enable-background:accumulate"
     d="m 942.04949,546.97444 c 0.44207,12.52959 -5.69557,15.94414 -9.41496,22.70666 -6.50371,2.39161 -13.268,2.6572 -18.82991,-2.4922 13.73912,-0.49721 23.70486,-12.08001 28.24487,-20.21446 z"
     id="path14980"
     inkscape:connector-curvature="0"
     transform="translate(0,-185.45001)"
     sodipodi:nodetypes="cccc" /><path
     style="color:#000000;fill:#4b12ab;fill-opacity:1;fill-rule:nonzero;stroke:none;stroke-width:1px;marker:none;visibility:visible;display:inline;overflow:visible;enable-background:accumulate"
     d="m 1083.9781,723.69633 c 12.7559,-10.88023 23.3515,-43.70271 25.063,-83.02144 8.9768,19.28108 11.1726,40.19068 9.3036,63.59159 -17.8844,8.41944 -19.7218,7.36938 -34.3666,19.42985 z"
     id="path14982"
     inkscape:connector-curvature="0"
     sodipodi:nodetypes="cccc" /><path
     style="color:#000000;fill:#2d126c;fill-opacity:1;fill-rule:nonzero;stroke:none;stroke-width:1px;marker:none;visibility:visible;display:inline;overflow:visible;enable-background:accumulate"
     d="m 1246.0972,785.11746 c -0.4437,-12.88821 -5.5188,-25.42732 -8.8611,-33.78308 8.4479,3.31227 14.6815,12.6849 18.8299,17.72227"
     id="path14990"
     inkscape:connector-curvature="0"
     transform="translate(0,-185.45001)"
     sodipodi:nodetypes="ccc" /><path
     style="color:#000000;fill:#4b12ab;fill-opacity:1;fill-rule:nonzero;stroke:none;stroke-width:1px;marker:none;visibility:visible;display:inline;overflow:visible;enable-background:accumulate"
     d="m 776.45701,766.92138 c 58.7895,-14.49687 112.22089,-35.39525 141.83718,-79.81968 -13.40018,46.51007 -53.0887,79.44614 -83.13216,92.00375 -20.90355,0.45605 -41.90156,-3.78234 -58.70502,-12.18407 z"
     id="path14998"
     inkscape:connector-curvature="0"
     sodipodi:nodetypes="cccc" /><path
     style="color:#000000;fill:#4b12ab;fill-opacity:1;fill-rule:nonzero;stroke:none;stroke-width:1px;marker:none;visibility:visible;display:inline;overflow:visible;enable-background:accumulate"
     d="m 1335.8162,641.124 c -7.8254,-4.10659 -12.196,-10.04374 -18.8299,-15.50698 12.9892,0.16381 14.674,2.66801 24.3681,4.43056 -2.5043,3.75327 -3.5177,7.03539 -5.5382,11.07642 z"
     id="path15006"
     inkscape:connector-curvature="0"
     transform="translate(0,-185.45001)"
     sodipodi:nodetypes="cccc" /><path
     style="color:#000000;fill:#4b12ab;fill-opacity:1;fill-rule:nonzero;stroke:none;stroke-width:1px;marker:none;visibility:visible;display:inline;overflow:visible;enable-background:accumulate"
     d="m 1379.5681,492.69998 c -3.1577,0.14353 -16.5317,0.81692 -17.1685,0.55382 3.2568,3.63055 8.2902,5.19822 12.7379,7.19967 5.4445,-0.64327 2.8611,-5.00686 4.4306,-7.75349 z"
     id="path15014"
     inkscape:connector-curvature="0"
     transform="translate(0,-185.45001)" /><path
     style="color:#000000;fill:#4b12ab;fill-opacity:1;fill-rule:nonzero;stroke:none;stroke-width:1px;marker:none;visibility:visible;display:inline;overflow:visible;enable-background:accumulate"
     d="m 1372.3684,350.92181 c -4.3366,4.98377 -7.4398,7.43979 -9.415,9.41496 5.6395,2.18065 6.6415,-0.66415 11.0765,-1.10765 1.2585,-3.29338 -1.0934,-5.46704 -1.6615,-8.30731 z"
     id="path15035"
     inkscape:connector-curvature="0"
     transform="translate(0,-185.45001)"
     sodipodi:nodetypes="cccc" /><path
     style="fill:#b12f32;fill-opacity:1;stroke:none"
     d="m 289.75,432.21875 c -7.06019,0.21386 -16.34923,2.32229 -27.09375,6.78125 -19.30998,8.01362 -52.98913,48.3531 -24.71875,107.21875 8.60354,-9.95987 42.81678,-15.73617 75.62745,32.75698 10.91922,-1.90359 21.56879,9.81057 13.54442,22.19614 -3.83287,5.91601 -15.74707,15.06496 -33.09477,14.50571 5.19523,14.98111 36.6017,0.59251 36.74689,2.71521 12.70132,185.69433 214.95477,338.25296 383.67601,313.70096 167.25927,-24.33926 186.77568,-116.61761 195.96875,-159.6875 -17.21904,11.78145 -21.32346,27.43417 -43.09375,35.375 -2.70998,29.8098 -95.98531,81.10276 -158.1875,90.4375 -56.65236,8.50188 -103.17287,-6.65518 -92.03125,-15.0625 C 646.26954,886.25446 685.54048,870.90624 689.25,855.875 664.3822,827.31862 666.68005,837.35192 642.6875,840.75 570.99884,850.90331 476.87077,799.6087 422.5625,745.375 402.95513,725.79454 407.56963,729.27575 404.75,716.65625 418.82539,710.88306 501.16665,788.85122 560.59375,779.25 589.77995,773.72244 540.1085,746.13521 527.9375,738.375 474.91169,704.56586 445.18113,664.10058 419.8125,609.1875 383.24189,530.02653 356.04171,449.77769 295.875,453.21875 c 14.18682,-12.79954 9.40742,-21.47049 -6.125,-21 z"
     transform="translate(0,-185.45001)"
     id="path15113"
     inkscape:connector-curvature="0"
     sodipodi:nodetypes="ssccscssccsccssccsscs" /><path
     style="fill:#692836;fill-opacity:1;stroke:none"
     d="m 427.5498,808.37794 c 17.04949,78.42768 173.65976,131.422 243.68123,116.30241 -27.384,-7.824 -111.05027,-19.20194 -128.29691,-56.47301 68.16128,8.83883 148.85544,7.47446 120.54342,-19.95429 -149.75769,19.68929 -221.42835,-40.11123 -282.9823,-134.31465 -8.02988,-12.2891 -22.81202,-61.13503 2.57748,-77.43929 1.31701,-10.87327 -17.97389,-46.38339 -25.97394,-44.20923 -8.46386,2.3002 -49.92035,42.48652 -52.86696,37.12904 0.24958,13.53608 -2.50241,30.50173 -8.86015,41.47756 13.9348,1.98789 40.97318,11.96396 47.10287,23.04376 23.76295,42.95303 47.23694,92.53131 85.07526,114.4377 z"
     id="path15115"
     inkscape:connector-curvature="0"
     transform="translate(0,-185.45001)"
     sodipodi:nodetypes="ccccscsccsc" /><path
     style="color:#000000;fill:#692836;fill-opacity:1;fill-rule:nonzero;stroke:none;stroke-width:1px;marker:none;visibility:visible;display:inline;overflow:visible;enable-background:accumulate"
     d="M 514.0625,750 C 456.52947,727.37738 442.19023,676.43661 415.625,634.375 381.76036,567.87408 360.45418,469.44519 285.90339,460.03587 280.94811,459.41045 308.96071,433.39707 281.25,443.75 c -14.0045,6.13372 -33.46641,41.99774 -38.36725,54.75977 33.65296,-6.57913 50.41068,15.68248 81.47249,79.35406 15.03901,-5.22554 17.24947,16.89973 11.54278,22.65603 C 379.90523,659.6383 470.59998,733.44285 514.0625,750 z"
     id="path15138"
     inkscape:connector-curvature="0"
     transform="translate(0,-185.45001)"
     sodipodi:nodetypes="ccsccccc" /><path
     style="color:#000000;fill:#692836;fill-opacity:1;fill-rule:nonzero;stroke:none;stroke-width:1px;marker:none;visibility:visible;display:inline;overflow:visible;enable-background:accumulate"
     d="m 726.5625,479.6875 c 6.49051,26.15201 25.812,34.95179 42.1875,48.4375 22.11725,26.31816 6.36649,24.65054 0,43.75 32.88438,-11.73112 84.9065,10.78331 111.06481,16.4699 -24.34396,-31.54179 -95.35535,-72.20752 -122.00231,-102.4074 -9.41969,-8.54165 -20.13324,-4.02665 -31.25,-6.25 z"
     id="path15189"
     inkscape:connector-curvature="0"
     transform="translate(0,-185.45001)"
     sodipodi:nodetypes="cccccc" /><path
     style="color:#000000;fill:#692836;fill-opacity:1;fill-rule:nonzero;stroke:none;stroke-width:1px;marker:none;visibility:visible;display:inline;overflow:visible;enable-background:accumulate"
     d="m 622.033,911.61165 c 92.764,1.68689 194.99352,-14.90049 253.01164,-80.65437 -49.90091,70.49311 -176.01281,136.26465 -253.01164,80.65437 z"
     id="path15219"
     inkscape:connector-curvature="0"
     transform="translate(0,-185.45001)" /><path
     style="color:#000000;fill:#ff534f;fill-opacity:1;fill-rule:nonzero;stroke:none;stroke-width:1px;marker:none;visibility:visible;display:inline;overflow:visible;enable-background:accumulate"
     d="m 209.375,665.625 c 47.96463,-2.14106 49.50511,-12.60551 91.40625,6.25 -4.29141,-27.47674 -4.33143,-20.12248 0.39062,-46.09375 -29.54239,11.85096 -27.85981,-0.56265 -56.64062,-10.15625 -34.34577,-0.1305 -37.75982,30.90715 -35.15625,50 z"
     id="path15261"
     inkscape:connector-curvature="0"
     transform="translate(0,-185.45001)"
     sodipodi:nodetypes="ccccc" /><path
     style="color:#000000;fill:#4b1252;fill-opacity:1;fill-rule:nonzero;stroke:none;stroke-width:1px;marker:none;visibility:visible;display:inline;overflow:visible;enable-background:accumulate"
     d="m 1092.9688,389.0625 c 6.1524,-4.65264 8.2898,-11.67291 8.5937,-18.35937 3.122,-0.4258 3.9503,2.89527 5.4687,4.29687 0.7445,10.78678 -10.506,12.10643 -14.0624,14.0625"
     id="path17446"
     inkscape:connector-curvature="0"
     transform="translate(0,-185.45001)"
     sodipodi:nodetypes="cccc" /><path
     style="color:#000000;fill:#4b1252;fill-opacity:1;fill-rule:nonzero;stroke:none;stroke-width:1px;marker:none;visibility:visible;display:inline;overflow:visible;enable-background:accumulate"
     d="m 1068.3594,381.64062 c 3.3168,-6.38266 5.5031,-13.99382 3.5156,-20.70312 -2.6691,-1.36196 -6.8033,0.87191 -8.2031,1.17187 4.5425,7.77111 3.6679,13.66836 4.6875,19.53125 z"
     id="path17465"
     inkscape:connector-curvature="0"
     transform="translate(0,-185.45001)"
     sodipodi:nodetypes="cccc" /><path
     style="color:#000000;fill:#4b1252;fill-opacity:1;fill-rule:nonzero;stroke:none;stroke-width:1px;marker:none;visibility:visible;display:inline;overflow:visible;enable-background:accumulate"
     d="m 1028.5156,370.70312 c 7.1748,2.42074 7.1472,5.67902 8.9844,12.10938 3.3928,-5.60298 1.5119,-9.87654 0.7813,-15.23438 -5.2881,-1.18205 -5.5329,2.76644 -6.25,3.125"
     id="path17473"
     inkscape:connector-curvature="0"
     transform="translate(0,-185.45001)" /><path
     style="color:#000000;fill:#4b1252;fill-opacity:1;fill-rule:nonzero;stroke:none;stroke-width:1px;marker:none;visibility:visible;display:inline;overflow:visible;enable-background:accumulate"
     d="m 1001.5625,392.57812 c 6.0065,0.2179 6.0109,4.45177 13.6719,6.64063 -3.6819,-3.52432 -4.8184,-7.6125 -7.4219,-12.10938 -4.2295,-0.38063 -2.5944,3.63219 -3.9062,5.46875"
     id="path17481"
     inkscape:connector-curvature="0"
     transform="translate(0,-185.45001)" /><path
     style="color:#000000;fill:#6e4579;fill-opacity:1;fill-rule:nonzero;stroke:none;stroke-width:1px;marker:none;visibility:visible;display:inline;overflow:visible;enable-background:accumulate"
     d="m 815.93494,816.59418 c 13.4544,-5.50036 22.70844,-15.45496 31.48835,-23.20194 -14.0323,7.75876 -47.70527,24.31403 -72.09175,22.09708 13.91216,3.13422 38.77309,1.18806 40.6034,1.10486 z"
     id="path17516"
     inkscape:connector-curvature="0"
     transform="translate(0,-185.45001)"
     sodipodi:nodetypes="cccc" /><path
     style="color:#000000;fill:#b12f32;fill-opacity:1;fill-rule:nonzero;stroke:none;stroke-width:1px;marker:none;visibility:visible;display:inline;overflow:visible;enable-background:accumulate"
     d="m 174.21875,742.96875 c 9.58104,34.66543 64.82495,36.0466 100,31.25 -20.04605,13.8314 -40.31983,20.07785 -60.21094,19.17912 -8.8823,-0.40132 -51.14133,33.06954 -59.39192,30.28257 -9.59238,-3.24022 -4.56172,-28.28197 11.49638,-46.71347 -35.36163,-25.70231 -59.05303,-76.32264 -36.42477,-123.84197 4.18637,1.74453 55.40959,-7.39495 63.77619,-11.22185 5.73378,6.70339 1.24472,20.79344 -0.83282,28.74102 10.13503,9.06756 15.01239,12.50805 23.59534,13.88787 24.19227,3.88921 54.67737,0.35035 80.15001,-32.52344 -3.628,44.16369 -95.66829,68.51662 -93.32974,72.88512 -13.01332,10.90112 -32.99972,2.98025 -28.82773,18.07503 z"
     id="path17537"
     inkscape:connector-curvature="0"
     transform="translate(0,-185.45001)"
     sodipodi:nodetypes="scssccccsccs" /><path
     style="color:#000000;fill:#b12f32;fill-opacity:1;fill-rule:nonzero;stroke:none;stroke-width:1px;marker:none;visibility:visible;display:inline;overflow:visible;enable-background:accumulate"
     d="m 212.5,600 c -15.67529,17.03081 -45.97541,24.52739 -76.5625,22.23786 C 81.263776,618.14537 45.24728,580.35107 32.8125,528.125 43.596383,632.14588 151.43132,689.19367 226.5625,614.0625 218.36904,609.75961 215.23401,602.73401 212.5,600 z"
     id="path17634"
     inkscape:connector-curvature="0"
     transform="translate(0,-185.45001)"
     sodipodi:nodetypes="csccc" /><path
     style="color:#000000;fill:#692836;fill-opacity:1;fill-rule:nonzero;stroke:none;stroke-width:1px;marker:none;visibility:visible;display:inline;overflow:visible;enable-background:accumulate"
     d="m 281.38962,683.10358 c -7.32605,6.58893 -106.97932,38.6798 -123.09674,36.11205 -18.93138,31.73356 16.84493,50.89922 45.61337,66.72187 -54.5435,-2.96118 -88.31953,-39.9047 -90.625,-90.625 -58.305416,-26.55597 -110.910774,-98.12706 -82.8125,-159.375 3.347277,37.08743 33.870237,74.0346 79.48815,88.81913 49.83134,16.15009 90.26942,-0.42426 106.47159,-19.38602 4.70845,3.131 13.07141,11.34081 8.76998,16.6127 -10.32545,12.65498 -46.27197,24.16568 -38.59273,21.96775 8.61188,8.97863 -12.09939,25.85439 -2.06956,32.19324 27.83384,17.59095 60.7735,23.22545 96.85344,6.95928 z"
     id="path17556"
     inkscape:connector-curvature="0"
     transform="translate(0,-185.45001)"
     sodipodi:nodetypes="cccccscscsc" /><path
     style="color:#000000;fill:#b12f32;fill-opacity:1;fill-rule:nonzero;stroke:none;stroke-width:1px;marker:none;visibility:visible;display:inline;overflow:visible;enable-background:accumulate"
     d="m 185.61553,460.83108 c -24.87846,92.58855 71.36736,175.61971 146.3932,138.10679 0.6373,2.3148 0.36829,4.7877 0.55243,7.18155 -48.46895,35.1645 -115.87538,10.70235 -140.86893,-37.01262 -16.68547,-34.89988 -24.37985,-82.69665 -6.0767,-108.27572 z"
     id="path17576"
     inkscape:connector-curvature="0"
     transform="translate(0,-185.45001)"
     sodipodi:nodetypes="ccccc" /><path
     style="color:#000000;fill:#692836;fill-opacity:1;fill-rule:nonzero;stroke:none;stroke-width:1px;marker:none;visibility:visible;display:inline;overflow:visible;enable-background:accumulate"
     d="m 201.08349,569.65923 c 36.7106,37.69747 73.86144,53.35821 115.26209,41.83556 7.42599,-2.06681 18.73129,-11.42404 26.15927,-14.76663 -18.40778,27.83169 -61.28854,30.08779 -90.04563,24.85923 -29.90063,-10.72916 -41.58812,-26.23569 -51.37573,-51.92816 z"
     id="path17601"
     inkscape:connector-curvature="0"
     transform="translate(0,-185.45001)"
     sodipodi:nodetypes="csccc" /><path
     style="color:#000000;fill:#692836;fill-opacity:1;fill-rule:nonzero;stroke:none;stroke-width:1px;marker:none;visibility:visible;display:inline;overflow:visible;enable-background:accumulate"
     d="m 263.50776,623.79709 c -9.33393,23.10192 -26.85208,39.38386 -51.92815,29.83107 -1.69447,-18.45931 10.72336,-25.96222 22.09709,-33.14563 8.7852,7.08278 20.70074,6.62913 27.62135,6.62913"
     id="path17626"
     inkscape:connector-curvature="0"
     transform="translate(0,-185.45001)" /><path
     style="color:#000000;fill:#b12f32;fill-opacity:1;fill-rule:nonzero;stroke:none;stroke-width:1px;marker:none;visibility:visible;display:inline;overflow:visible;enable-background:accumulate"
     d="m 207.71262,417.18934 c -0.43412,6.06918 -23.77554,29.81932 -26.51651,34.8029 -39.33873,18.83359 -88.545228,31.21565 -99.713102,77.61603 4.161822,-53.93258 36.691272,-93.85048 71.526672,-111.13417 11.74954,-5.82957 43.70442,-9.737 54.70294,-1.28476 z"
     id="path17672"
     inkscape:connector-curvature="0"
     transform="translate(0,-185.45001)"
     sodipodi:nodetypes="cccsc" /><path
     style="color:#000000;fill:#692836;fill-opacity:1;fill-rule:nonzero;stroke:none;stroke-width:1px;marker:none;visibility:visible;display:inline;overflow:visible;enable-background:accumulate"
     d="m 194.45437,433.76215 c -7.88436,5.26467 -15.70155,5.63324 -23.75437,7.73398 -21.25949,-28.85527 -63.64287,12.8033 -64.63398,45.29902 19.82976,-14.24216 44.85064,-25.92331 69.60582,-28.17378 1.5279,-7.79287 6.13401,-14.31665 8.28641,-18.2301"
     id="path17680"
     inkscape:connector-curvature="0"
     transform="translate(0,-185.45001)"
     sodipodi:nodetypes="ccccc" /><path
     style="color:#000000;fill:#b12f32;fill-opacity:1;fill-rule:nonzero;stroke:none;stroke-width:1px;marker:none;visibility:visible;display:inline;overflow:visible;enable-background:accumulate"
     d="m 172.65625,458.59375 c -7.83073,3.52769 -23.32259,16.19083 -23.89998,24.64275 -29.39245,22.09811 -38.65025,55.45189 -37.03752,92.54475 40.97424,34.5836 79.07581,3.58499 87.5,7.03125 -14.89656,-44.26988 -26.11734,-61.42 -26.5625,-83.59375 -4.20485,-10.11181 0.36887,-32.50993 0,-40.625 z"
     id="path17699"
     inkscape:connector-curvature="0"
     transform="translate(0,-185.45001)"
     sodipodi:nodetypes="cccccc" /><path
     style="color:#000000;fill:#692836;fill-opacity:1;fill-rule:nonzero;stroke:none;stroke-width:1px;marker:none;visibility:visible;display:inline;overflow:visible;enable-background:accumulate"
     d="m 170.3125,592.1875 c -12.77329,-16.32773 -15.96427,-36.32351 -14.0625,-61.71875 1.2917,-10.81648 7.14908,-15.81063 12.5,-21.875 7.5754,21.24304 21.39988,53.82365 30.46875,70.3125 -6.87338,8.40139 -28.58726,9.15674 -28.90625,9.375"
     id="path17724"
     inkscape:connector-curvature="0"
     transform="translate(0,-185.45001)"
     sodipodi:nodetypes="ccccc" /><path
     style="color:#000000;fill:#692836;fill-opacity:1;fill-rule:nonzero;stroke:none;stroke-width:1px;marker:none;visibility:visible;display:inline;overflow:visible;enable-background:accumulate"
     d="m 154.45868,491.27221 c 4.38375,-12.2981 11.08577,-17.28004 18.19757,-24.86596 -2.51379,6.88091 -3.36575,22.67339 -3.90625,25.78125 -14.69386,14.48292 -31.08856,66.47913 -32.17746,88.35078 -0.46244,9.28836 -12.25615,-2.61227 -9.58016,2.90993 -16.97949,-30.99456 9.27589,-82.35943 27.4663,-92.176 z"
     id="path17749"
     inkscape:connector-curvature="0"
     transform="translate(0,-185.45001)"
     sodipodi:nodetypes="cccscc" /><path
     style="color:#000000;fill:#2d126c;fill-opacity:1;fill-rule:nonzero;stroke:none;stroke-width:1px;marker:none;visibility:visible;display:inline;overflow:visible;enable-background:accumulate"
     d="m 1115.6484,845.89063 c -3.9368,2.31998 -7.1201,3.81979 -9.3281,4.9375 -3.5988,26.80702 -10.5231,46.33911 -20.6015,56.67187 10.8704,-7.53507 22.705,-13.81982 32.8437,-20.625 1.1105,-16.79402 1.3812,-26.43727 -2.9141,-40.98437 z"
     transform="translate(0,-185.45001)"
     id="path17790"
     inkscape:connector-curvature="0"
     sodipodi:nodetypes="ccccc" /><path
     style="color:#000000;fill:#21154a;fill-opacity:1;fill-rule:nonzero;stroke:none;stroke-width:1px;marker:none;visibility:visible;display:inline;overflow:visible;enable-background:accumulate"
     d="m 1118.5469,878.40625 c -6.5613,3.71568 -14.4966,6.53696 -21.4219,8.875 -3.7073,10.31414 -6.592,15.28304 -11.4062,20.21875 0.4068,-0.23806 0.8122,-0.47967 1.2187,-0.71875 7.8447,-6.2352 11.8197,-8.33861 18.1875,-11.15625 4.5018,-2.86226 8.9997,-5.76688 13.4375,-8.75 0.2247,-3.39773 -0.051,-5.17396 -0.016,-8.46875 z"
     transform="translate(0,-185.45001)"
     id="path17822"
     inkscape:connector-curvature="0"
     sodipodi:nodetypes="ccccccc" /><path
     style="fill:#a3b6c1;fill-opacity:1;stroke:none"
     d="m 914.26697,710.52816 c -4.78124,38.61225 -28.24962,64.38342 -49.71844,87.28349 18.05879,-2.17178 31.69034,-16.15505 44.7466,-24.85922 3.8075,-20.94399 7.617,-43.02647 4.97184,-62.42427 z"
     id="path17863"
     inkscape:connector-curvature="0"
     transform="translate(0,-185.45001)" /><path
     style="color:#000000;fill:#31122f;fill-opacity:1;fill-rule:nonzero;stroke:none;stroke-width:1px;marker:none;visibility:visible;display:inline;overflow:visible;enable-background:accumulate"
     d="m 1194.2188,791.25 c -7.4224,6.41238 -15.044,12.62813 -22.875,18.59375 -1.8015,17.17152 -5.1881,34.01297 -9.1876,47.90625 13.0716,-9.91824 25.6896,-20.38793 37.8126,-31.34375 0.8972,-9.10917 -1.2178,-21.82996 -5.75,-35.15625 z"
     transform="translate(0,-185.45001)"
     id="path17865"
     inkscape:connector-curvature="0" /><path
     style="color:#000000;fill:#31122f;fill-opacity:1;fill-rule:nonzero;stroke:none;stroke-width:1px;marker:none;visibility:visible;display:inline;overflow:visible;enable-background:accumulate"
     d="m 1291.6875,681.34375 c -4.2155,6.04647 -8.5272,12.04827 -12.9375,17.96875 4.0776,9.27935 7.1941,18.62088 8.7812,26.75 6.9705,-10.27672 13.554,-20.75323 19.7188,-31.40625 -4.027,-5.06642 -9.3899,-9.35713 -15.5625,-13.3125 z"
     transform="translate(0,-185.45001)"
     id="path17887"
     inkscape:connector-curvature="0" /><path
     style="color:#000000;fill:#2d126c;fill-opacity:1;fill-rule:nonzero;stroke:none;stroke-width:1px;marker:none;visibility:visible;display:inline;overflow:visible;enable-background:accumulate"
     d="m 1326.6562,626.40625 c -1.0134,1.74049 -2.0356,3.48303 -3.0624,5.21875 3.3002,3.162 6.5206,6.23311 10.7812,8.71875 1.5238,-3.60317 3.0097,-7.21429 4.4375,-10.84375 -4.8416,-1.09117 -7.6741,-2.30783 -12.1563,-3.09375 z"
     transform="translate(0,-185.45001)"
     id="path17909"
     inkscape:connector-curvature="0" /><path
     style="color:#000000;fill:#2d126c;fill-opacity:1;fill-rule:nonzero;stroke:none;stroke-width:1px;marker:none;visibility:visible;display:inline;overflow:visible;enable-background:accumulate"
     d="m 824.625,152.65625 c -8.29687,7.12653 -15.87826,6.43092 -21.59375,21.03125 2.96461,8.44017 8.84723,16.48978 16.34375,24.03125 5.04921,-10.45038 10.6261,-20.66808 16.6875,-30.5625 -4.04885,-5.31827 -7.92357,-10.20936 -11.4375,-14.5 z"
     transform="translate(0,-185.45001)"
     id="path17920"
     inkscape:connector-curvature="0" /><path
     style="color:#000000;fill:#2d126c;fill-opacity:1;fill-rule:nonzero;stroke:none;stroke-width:1px;marker:none;visibility:visible;display:inline;overflow:visible;enable-background:accumulate"
     d="m 738.8125,307.15625 c -1.81204,8.60845 -11.08899,14.98402 -8.875,32.6875 17.18403,12.41069 34.30776,20.95502 55.6875,24.65625 -0.46508,-5.6385 -0.74542,-11.33341 -0.84375,-17.09375 -16.01377,-10.50972 -29.93176,-22.57527 -45.96875,-40.25 z"
     transform="translate(0,-185.45001)"
     id="path17931"
     inkscape:connector-curvature="0" /><path
     style="color:#000000;fill:#21154a;fill-opacity:1;fill-rule:nonzero;stroke:none;stroke-width:1px;marker:none;visibility:visible;display:inline;overflow:visible;enable-background:accumulate"
     d="m 738.8125,307.15625 c -1.81204,8.60845 -11.08899,14.98402 -8.875,32.6875 7.86145,5.67772 15.71926,10.53421 23.96875,14.5 -0.41634,-10.04596 -0.27868,-20.43262 0.46875,-31.1875 -5.05352,-4.81309 -10.19199,-10.08104 -15.5625,-16 z"
     transform="translate(0,-185.45001)"
     id="path17958"
     inkscape:connector-curvature="0" /><path
     style="color:#000000;fill:#21154a;fill-opacity:1;fill-rule:nonzero;stroke:none;stroke-width:1px;marker:none;visibility:visible;display:inline;overflow:visible;enable-background:accumulate"
     d="m 764.28125,485.5 c 4.47659,5.43586 13.43627,19.89516 19.9375,26.03125 17.5868,6.31799 34.89318,3.79952 50.90625,-0.65625 -1.29457,-0.89734 -2.574,-1.82269 -3.84375,-2.75 -29.54214,-1.27311 -48.76667,-10.41103 -67,-22.625 z"
     transform="translate(0,-185.45001)"
     id="path17963"
     inkscape:connector-curvature="0" /><path
     style="color:#000000;fill:#21154a;fill-opacity:1;fill-rule:nonzero;stroke:none;stroke-width:1px;marker:none;visibility:visible;display:inline;overflow:visible;enable-background:accumulate"
     d="m 938.1875,552.78125 c -5.34461,6.94838 -13.70847,14.02023 -24.375,14.40625 5.56191,5.1494 12.30879,4.89161 18.8125,2.5 2.99648,-5.44814 7.56942,-8.72471 9,-16.34375 -1.15145,-0.17127 -2.29561,-0.37198 -3.4375,-0.5625 z"
     transform="translate(0,-185.45001)"
     id="path17968"
     inkscape:connector-curvature="0" /><path
     style="color:#000000;fill:#180017;fill-opacity:1;fill-rule:nonzero;stroke:none;stroke-width:1px;marker:none;visibility:visible;display:inline;overflow:visible;enable-background:accumulate"
     d="m 988.875,554.09375 c -3.26918,0.40584 -6.52549,0.69988 -9.75,0.90625 -3.51034,5.75086 -8.32607,10.96764 -14.71875,13.0625 5.01977,-0.24299 13.37913,-0.66333 17.84375,-0.46875 3.25949,-4.49435 5.61693,-8.76427 6.625,-13.5 z"
     transform="translate(0,-185.45001)"
     id="path18024"
     inkscape:connector-curvature="0" /><path
     style="color:#000000;fill:#2d126c;fill-opacity:1;fill-rule:nonzero;stroke:none;stroke-width:1px;marker:none;visibility:visible;display:inline;overflow:visible;enable-background:accumulate"
     d="m 896.53125,897.65625 c -30.6493,27.82786 -73.66997,43.27884 -120.0625,54.71875 16.80346,8.40173 37.78395,12.64355 58.6875,12.1875 24.24774,-10.13511 54.76564,-33.54972 72.6875,-66.65625 -1.80876,0.006 -9.54517,-0.11605 -11.3125,-0.25 z"
     transform="translate(0,-185.45001)"
     id="path18042"
     inkscape:connector-curvature="0"
     sodipodi:nodetypes="ccccc" /><path
     style="color:#000000;fill:#21154a;fill-opacity:1;fill-rule:nonzero;stroke:none;stroke-width:1px;marker:none;visibility:visible;display:inline;overflow:visible;enable-background:accumulate"
     d="m 857.8125,923.9375 c -24.29249,12.45458 -52.14761,21.23804 -81.34375,28.4375 16.80346,8.40173 37.78395,12.64355 58.6875,12.1875 15.4962,-6.47713 33.55269,-18.39478 49.25,-34.78125 -9.44278,-0.97776 -19.00997,-2.91061 -26.59375,-5.84375 z"
     transform="translate(0,-185.45001)"
     id="path18037"
     inkscape:connector-curvature="0" /><path
     style="color:#000000;fill:#31122f;fill-opacity:1;fill-rule:nonzero;stroke:none;stroke-width:1px;marker:none;visibility:visible;display:inline;overflow:visible;enable-background:accumulate"
     d="m 723.71875,381.4375 c 0.92144,14.0589 2.03014,26.17758 6.3125,38.125 11.02331,20.52724 47.66533,36.46967 84.4375,35.53125 -3.19193,-4.91711 -6.1203,-10.0499 -8.78125,-15.34375 -35.39191,-7.39447 -66.20811,-29.96927 -81.96875,-58.3125 z"
     transform="translate(0,-185.45001)"
     id="path18092"
     inkscape:connector-curvature="0"
     sodipodi:nodetypes="ccccc" /><path
     style="color:#000000;fill:#31122f;fill-opacity:1;fill-rule:nonzero;stroke:none;stroke-width:1px;marker:none;visibility:visible;display:inline;overflow:visible;enable-background:accumulate"
     d="m 768.65625,217.6875 c -1.16358,2.32716 -2.47453,4.36114 -3.84375,6.28125 -2.83004,5.12524 -5.54044,10.32313 -8.125,15.59375 -0.26805,1.7573 -0.36784,3.65621 -0.1875,5.8125 2.79441,15.24159 15.40506,30.85039 33,44.46875 2.18899,-12.46017 5.1094,-24.95189 8.75,-37.34375 -9.89188,-11.2526 -19.67187,-22.98858 -29.59375,-34.8125 z"
     transform="translate(0,-185.45001)"
     id="path18103"
     inkscape:connector-curvature="0" /><path
     style="color:#000000;fill:#180017;fill-opacity:1;fill-rule:nonzero;stroke:none;stroke-width:1px;marker:none;visibility:visible;display:inline;overflow:visible;enable-background:accumulate"
     d="m 822.5,534.46875 c 12.33356,6.82088 20.65316,15.26881 34.4375,19.40625 17.4656,-3.23739 30.88245,-6.35252 40.65625,-11.9375 -3.9096,-1.41564 -7.72986,-2.88621 -11.4375,-4.40625 -17.66752,4.54859 -40.70962,5.13194 -63.65625,-3.0625 z"
     transform="translate(0,-185.45001)"
     id="path18131"
     inkscape:connector-curvature="0" /><path
     style="color:#000000;fill:#180017;fill-opacity:1;fill-rule:nonzero;stroke:none;stroke-width:1px;marker:none;visibility:visible;display:inline;overflow:visible;enable-background:accumulate"
     d="m 727.375,387.5 c 1.2344,13.30444 3.6539,26.17668 7.09375,38.53125 9.33607,11.14434 26.20999,20.3399 45.8125,25.25 C 775.61518,443.11787 771.50948,434.45985 768,425.34375 751.30135,415.71471 737.19203,402.57173 727.375,387.5 z"
     transform="translate(0,-185.45001)"
     id="path18142"
     inkscape:connector-curvature="0" /><path
     style="color:#000000;fill:#180017;fill-opacity:1;fill-rule:nonzero;stroke:none;stroke-width:1px;marker:none;visibility:visible;display:inline;overflow:visible;enable-background:accumulate"
     d="m 769.875,219.15625 c -4.92938,8.31866 -9.39015,16.63324 -13.4375,24.90625 0.0142,0.43089 0.0247,0.86001 0.0625,1.3125 1.09412,5.96768 3.71745,11.99875 7.53125,17.9375 3.0231,-12.26316 6.71863,-24.87599 11.15625,-37.84375 -1.7688,-2.10821 -3.53672,-4.19532 -5.3125,-6.3125 z"
     transform="translate(0,-185.45001)"
     id="path18153"
     inkscape:connector-curvature="0" /><path
     style="color:#000000;fill:#31122f;fill-opacity:1;fill-rule:nonzero;stroke:none;stroke-width:1px;marker:none;visibility:visible;display:inline;overflow:visible;enable-background:accumulate"
     d="m 1026.4062,882.21875 c -10.8822,2.99172 -22.0298,5.5482 -33.4687,7.71875 -21.05187,34.73906 -51.12951,61.88055 -81.59375,72.75 28.30946,-3.55034 56.15438,-9.69493 83.28125,-18.09375 14.1101,-14.11983 26.354,-36.58364 31.7812,-62.375 z"
     transform="translate(0,-185.45001)"
     id="path18177"
     inkscape:connector-curvature="0" /><path
     style="color:#000000;fill:#180017;fill-opacity:1;fill-rule:nonzero;stroke:none;stroke-width:1px;marker:none;visibility:visible;display:inline;overflow:visible;enable-background:accumulate"
     d="m 1016.2812,912.71875 c -16.53669,4.17458 -32.84362,7.73001 -48.3437,10.53125 -19.0041,20.47585 -41.1509,35.40126 -63.15625,41.53125 12.18134,-0.92167 85.07673,-15.21164 86.875,-17.3125 9.29485,-8.37392 17.95035,-20.43301 24.62495,-34.75 z"
     transform="translate(0,-185.45001)"
     id="path18166"
     inkscape:connector-curvature="0"
     sodipodi:nodetypes="ccccc" /><path
     style="fill:#989cc1;stroke:none;stroke-width:1px;stroke-linecap:butt;stroke-linejoin:miter;stroke-opacity:1;color:#000000;fill-opacity:1;fill-rule:nonzero;marker:none;visibility:visible;display:inline;overflow:visible;enable-background:accumulate"
     d="m 844.92188,764.72656 c -8.17963,8.94717 -19.04596,16.06595 -29.10157,21.09375 3.86046,-0.0396 7.78769,-0.71572 11.13282,-1.17187 12.99687,-6.70403 24.14553,-20.79557 30.66406,-28.71094 -4.8756,3.93834 -7.2396,5.65104 -12.69531,8.78906 z"
     id="path29222"
     inkscape:connector-curvature="0"
     transform="translate(0,-155.45001)"
     sodipodi:nodetypes="ccccc" /></g><g
   inkscape:groupmode="layer"
   id="layer1"
   inkscape:label="Đường"
   transform="translate(0,155.45001)"><path
     style="fill:#000000;stroke:none"
     d="m 373.55563,573.9403 c 92.27196,143.99714 210.98253,185.48841 319.5381,185.2472 203.91231,-0.45309 309.47957,-250.06251 192.71185,-373.26386 l -16.6181,2.20136 C 998.63204,594.85202 806.57222,729.64012 732.87845,733.82293 584.14442,742.26498 501.74923,705.33964 393.96933,589.01155 381.21368,572.0563 373.22481,545.69137 373.55563,573.9403 z"
     id="path11489"
     inkscape:connector-curvature="0"
     sodipodi:nodetypes="csccscc" /><path
     style="fill:#000000;stroke:none"
     d="m 338.06589,426.51991 c -1.52194,107.97601 57.76196,191.30726 216.56031,238.52309 31.1821,9.27144 79.76097,3.07664 106.33362,-5.53821 16.49744,-5.34846 28.92844,11.87113 11.07643,16.61464 -42.36504,11.25696 -83.95475,5.9386 -124.32466,-2.21528 C 385.90046,641.22167 324.66263,547.42853 327.28128,431.85852 c 5.04461,-0.40356 5.95334,-5.29749 10.78461,-5.33861 z"
     id="path11503"
     inkscape:connector-curvature="0"
     sodipodi:nodetypes="csssscc" /><path
     style="fill:#000000;stroke:#000000;stroke-width:1px;stroke-linecap:butt;stroke-linejoin:miter;stroke-opacity:1"
     d="m 539.11921,365.97967 c 64.97597,-53.13826 92.065,-106.59513 199.37555,-84.18079 7.31566,8.31206 12.85336,12.50725 15.507,22.15285 -99.6585,-36.05176 -157.24535,26.71934 -210.45198,77.53494 -33.58697,32.07762 -81.34209,-7.39729 -103.29624,-43.98754 39.25464,21.81924 59.11928,60.98569 98.86567,28.48054 z"
     id="path11505"
     inkscape:connector-curvature="0"
     sodipodi:nodetypes="sccscs" /><path
     style="fill:#000000;stroke:none"
     d="m 259.70785,279.35538 c 32.23469,0.34506 50.54065,16.38206 72.28862,46.64806 56.09843,78.07052 38.15358,158.66064 182.48585,232.26063 25.16566,12.83284 45.66183,36.39545 1e-5,17.72228 C 367.61847,515.92715 366.7679,426.01112 316.02438,331.23009 304.09943,308.95613 267.05311,294.39192 247.12387,296.0038 c 4.55159,-6.61659 5.10693,-11.60928 12.58398,-16.64842 z"
     id="path11513"
     inkscape:connector-curvature="0"
     sodipodi:nodetypes="csssscc" /><path
     style="fill:#000000;stroke:none"
     d="m 281.43751,202.27082 c -62.43042,0.0695 -117.12495,43.70297 -117.7459,114.94999 -0.48265,55.37912 38.3971,122.47633 101.23343,130.57985 1.42854,-7.10688 8.73196,-8.50352 12.82623,-8.84951 3.10619,-0.26249 14.01831,3.6299 14.32708,11.63258 16.95229,0.72077 21.25854,-3.27072 38.79663,-13.70873 17.13595,-10.19867 37.59365,-35.42579 18.42399,-58.93188 -12.51344,-14.25696 -19.87832,-6.70041 -33.89274,3.83813 -15.16432,11.40324 -44.88994,6.22768 -63.9605,-29.72985 -22.42428,-42.28097 16.45844,-69.03309 40.21235,-93.21454 -41.07851,-5.88566 -66.10635,49.76246 -55.8686,97.93329 4.94639,23.27384 39.78018,57.0978 83.00316,37.74445 10.70144,-4.79164 17.04886,-15.94688 21.9986,5.83477 3.95675,17.41193 -27.33718,31.98393 -38.44075,33.38402 -4.55193,-8.33089 -13.09781,-10.62694 -20.90206,-11.459 -7.67599,-0.81838 -12.66373,-0.53551 -21.97773,7.23663 -48.89665,-16.91873 -79.40407,-70.04659 -79.59572,-117.07352 -0.16065,-39.41971 31.9582,-76.95342 80.00619,-90.44163 94.97609,-26.66203 175.67682,60.04393 229.71256,156.50413 6.83919,-1.05219 21.78225,16.39337 33.65625,4.625 C 447.5292,297.55965 407.2512,202.13079 281.43751,202.27082 z"
     id="path11535"
     inkscape:connector-curvature="0"
     sodipodi:nodetypes="sscscscsscssscscssccs" /><path
     style="fill:#000000;stroke:none"
     d="M 206.82662,179.89583 C 76.635778,166.89299 -18.34739,341.77838 83.521859,436.85245 c 27.199401,25.38507 96.792971,28.34976 136.519731,-6.28404 -4.57653,-3.848 -18.95044,-18.13271 -26.25421,-24.59752 -19.24609,14.29031 -55.23896,19.77826 -72.46229,8.00231 -31.038398,-21.22161 -40.591335,-38.89146 -38.430597,-68.75273 1.408055,-19.45924 10.03329,-56.22372 39.222687,-77.64697 16.16581,-11.86472 29.01254,-16.18274 30.99499,-10.69001 -9.77074,7.36459 -25.12724,13.63242 -35.98222,32.0971 16.33287,-11.73176 43.06759,-24.06244 57.57506,-23.79633 -0.62827,2.82719 -0.65208,12.91846 -4.43057,13.29171 -15.82163,1.5629 -37.45342,12.15213 -52.14503,24.65503 -11.25919,9.58183 -17.78575,22.55664 -19.268377,38.28785 -3.693434,39.18856 44.273057,74.61027 85.353947,53.06769 14.77665,-7.74879 38.98566,20.73785 42.5492,42.38222 C 199.3081,484.29289 122.2313,497.4142 70.032839,448.499 -37.00149,348.19708 53.865299,147.02915 232.30238,164.38883 c 49.48888,4.81464 82.58596,20.38077 115.19477,50.95154 -19.14425,-5.67638 -28.46136,-4.81583 -46.52096,-5.53821 -23.03437,-19.65621 -65.66059,-27.06099 -94.14957,-29.90633 z"
     id="path11541"
     inkscape:connector-curvature="0"
     sodipodi:nodetypes="ssccssscccsssssssccs" /><path
     style="fill:#000000;stroke:none"
     d="m 243.14974,357.90615 c 26.20121,-9.63004 51.4885,19.43763 64.94065,40.11642 2.06553,-7.49018 12.47771,-4.23908 11.55828,-9.75567 -23.63494,-45.40056 -52.43786,-53.73657 -76.49893,-44.76009"
     id="path11547"
     inkscape:connector-curvature="0"
     sodipodi:nodetypes="cccc" /><path
     style="fill:#000000;stroke:none"
     d="m 686.49125,484.19599 c -15.78712,86.73692 34.88925,129.69743 86.15037,142.3483 59.16334,14.60107 107.8737,-19.64824 140.86058,-56.75849 10e-6,6.58339 0,9.33592 0,14.39935 -21.36486,41.78187 -91.61861,67.66794 -146.28745,56.81416 -66.56592,-13.21579 -117.573,-81.39608 -99.28464,-160.47371 11.50665,-49.75399 68.73585,-119.1201 171.36008,-96.87931 36.09082,7.82162 51.78502,27.52986 66.45852,52.875 -0.43261,3.86012 1.73438,20.33623 2.21528,22.50031 -27.50782,-35.91187 -38.15855,-53.16804 -75.31965,-60.92031 -80.3879,-16.76992 -137.81322,40.27415 -146.15309,86.0947 z"
     id="path11550"
     inkscape:connector-curvature="0"
     sodipodi:nodetypes="ssccsssccss" /><path
     style="fill:#000000;stroke:none"
     d="m 170.1748,305.05804 c -9.48413,3.92584 6.23349,21.31938 -1.2154,24.28232 -30.57516,37.32218 -23.20249,61.78546 -13.48142,84.17197 -6.8267,-1.05019 -17.73403,5.66634 -26.0711,-4.02409 -8.03219,-33.62401 -1.13923,-79.85712 40.76792,-104.4302 z"
     id="path11635"
     inkscape:connector-curvature="0"
     sodipodi:nodetypes="ccccc" /><path
     style="fill:#000000;stroke:none"
     d="m 290.96285,447.56292 c 9.50296,15.59429 -9.06755,47.0439 -18.86759,52.62546 -29.36369,16.72393 -74.56078,31.67071 -124.52748,-26.21361 -3.47855,-5.36205 -18.68581,-5.27572 -21.59902,-4.9844 43.42531,70.04943 94.45576,76.936 150.63931,45.41333 38.87851,-21.81341 34.94425,-63.05606 30.45326,-68.43485 m -55.50958,-3.08677 c -5.56217,23.57222 -34.19873,22.4546 -48.60187,16.69334 -7.40057,-3.55993 -7.52663,2.10037 -10.5226,4.43058 28.78765,26.34064 64.26685,13.46354 73.065,-17.62725"
     id="path11637"
     inkscape:connector-curvature="0"
     sodipodi:nodetypes="csccsccccc" /><path
     style="fill:#000000;stroke:none"
     d="m 184.16328,517.10249 c 6.01957,30.50012 32.1848,53.46355 63.49657,52.99027 24.82519,-0.37524 31.96218,20.06237 2.48404,27.70454 -73.04928,18.93793 -150.233078,-50.92763 -122.63378,-124.75919 -6.39128,0.64026 -21.89075,-9.10839 -25.60811,-10.22359 -25.496112,130.27376 93.59216,176.69745 164.36512,148.62197 26.35552,-10.45518 19.55332,-58.84912 -15.08079,-54.9368 -20.91439,2.36252 -43.61776,-19.77066 -43.33638,-36.45436 -7.4719,2.23842 -4.96056,-3.25874 -23.68667,-2.94284 z"
     id="path11643"
     inkscape:connector-curvature="0"
     sodipodi:nodetypes="cssccsscc" /><path
     style="fill:#000000;stroke:none"
     d="m 245.59409,438.53022 c -13.33605,-16.39308 -8.69485,1.63945 -24.36812,-17.16844 -3.15841,14.6882 -14.20609,31.24816 -21.0452,37.65982 0.36956,12.54699 14.75658,6.94427 16.61463,9.96878 -3.57817,-5.00472 13.87172,-30.59394 28.79869,-30.46016 z"
     id="path11645"
     inkscape:connector-curvature="0"
     sodipodi:nodetypes="ccccc" /><path
     style="fill:#000000;stroke:none"
     d="m 180.22411,599.87821 c -24.2814,9.72165 -24.79336,24.53977 -17.23086,29.7624 8.78089,6.06404 20.50854,-20.96454 46.21005,-18.01407 5.34664,-0.97283 15.56733,3.77747 17.23086,3.9161 -22.71277,4.82993 -41.46736,17.76251 -55.82241,29.16498 -13.81048,10.96989 -32.10959,-7.27974 -28.76547,-25.24887 2.7971,-15.02983 18.30303,-23.68927 28.19596,-25.8463 -1.22262,8.04438 6.97987,4.2953 10.18187,6.26576 z"
     id="path11653"
     inkscape:connector-curvature="0"
     sodipodi:nodetypes="csccsscc" /><path
     style="fill:#000000;stroke:none"
     d="m 26.280982,334.9657 c -39.745622,75.62914 29.485275,184.69767 81.965508,181.65327 0,-2.57703 -5.53821,-23.99516 -5.53821,-26.58339 C 41.612249,477.68587 11.38433,399.0959 32.926833,356.0109 33.810997,346.54403 28.7759,342.86628 26.280982,334.9657 z"
     id="path11655"
     inkscape:connector-curvature="0"
     sodipodi:nodetypes="ccccc" /><path
     style="fill:#000000;stroke:none"
     d="m 338.63601,500.00435 c 1.87199,3.92839 2.48689,19.6206 2.6069,20.3407 -9.78828,-16.26508 -32.12336,-30.57823 -53.55842,-25.8789 -3.91791,-10.13252 1.44508,-7.2254 0,-10.52261 18.54348,-6.07494 40.53136,4.54554 50.95152,16.06081 z"
     id="path11659"
     inkscape:connector-curvature="0"
     sodipodi:nodetypes="ccccc" /><path
     style="fill:#000000;stroke:none"
     d="m 683.56105,747.54947 c 9.03583,24.0803 25.23411,26.44498 42.14991,32.17568 242.17471,82.04343 654.90964,-121.72255 665.47814,-531.7999 5.3709,-208.40003 -147.0036,-397.72787 -374.5557,-382.65415 -138.65574,9.18496 -282.70246,116.50268 -301.03086,308.38127 -9.23957,96.72834 37.4145,157.12303 135.01163,213.972 130.66035,58.79717 281.06313,-63.27811 279.66973,-171.90483 -0.4116,-32.08411 -29.8551,-49.61393 -51.8258,-50.10793 -36.0587,-0.81077 -79.11409,22.77878 -96.8363,64.21482 -13.26066,31.00459 17.94136,56.90986 50.0226,20.48134 2.4376,-10.72401 -5.9336,-10.72577 -7.469,-3.58252 -3.5495,16.51332 -35.93316,11.52548 -29.71106,-13.65666 11.71816,-47.42606 46.05856,-51.57133 74.80936,-53.9806 78.0474,-6.54024 55.5633,123.77031 -42.0167,177.97761 -50.59914,28.10868 -105.9478,33.48743 -156.55092,12.87282 C 756.75033,323.51534 713.83189,257.68167 739.25979,130.49699 766.53398,-5.9224 887.51658,-113.79972 1012.5842,-120.55652 c 201.7522,-10.89971 380.907,164.57379 364.4325,384.67877 -28.1889,376.61333 -372.2715,561.99911 -620.34732,496.33709 -15.95541,-4.22316 -25.31918,-14.13879 -29.55734,-26.62407"
     id="path11487"
     inkscape:connector-curvature="0"
     sodipodi:nodetypes="csssscsssssssssssssc" /></g></svg>
