<?xml version="1.0" encoding="utf-8"?>
<svg version="1.1" id="Layer_1" xmlns="http://www.w3.org/2000/svg" xmlns:xlink="http://www.w3.org/1999/xlink" x="0px" y="0px"
	 viewBox="0 0 2621.845 1659.987" enable-background="new 0 0 2621.845 1659.987" xml:space="preserve">
<g>
	<path d="M623.852,739.995c-1.575-4.072,3.236-0.216-70.019-1.33c-81.409-1.238-114.364-18.918-129.238-24.762
		c-22.677-8.909-43.202-26.057-46.437-34.557c-3.384-8.895-20.859-15.728-22.223-50.021c-0.528-13.268-0.89-38.863,7.179-51.233
		c7.123-10.919,10.92-37.851-13.078-41.028c-14.42-1.909-90.206-0.234-88.83-57.404c0.27-11.206-0.621-22.474,2.271-33.505
		c0.394-1.502,0.75-3.105,0.644-4.628c-0.252-3.618,5.818-6.673,1.823-10.087c-4.921-4.206-9.036-9.441-17.35-8.916
		c-23.976,1.512-56.205,0.623-71.204-17.271c-5.032-6.003-20.399-20.297-19.476-42.133c0.418-9.888-2.351-44.085,8.565-63.082
		c1.661-2.891,2.045-5.869,1.826-9.016c-1.183-17.038-12.272,2.432-64.948-14.724c-28.459-9.269-20.417-19.267-42.821-38.473
		c-11.682-10.015-14.816-23.934-12.406-68.702c1.723-32.009,33.645-59.777,55.903-69.505c11.118-4.859,73.237-19.651,74.243-19.862
		c444.412-93.58,808.172,130.778,968.095,409.709c6.819,11.893,24.826-0.275,43.13,11.025
		c12.826,7.918,106.235,7.802,135.691,200.092c0.841,5.487,3.076,10.615,2.955,16.422c-0.114,5.461,4.926,5.749,8.975,5.946
		c8.418,0.411-1.4-1.518,13.589-74.128c29.764-144.174,114.238-150.955,116.917-153.46c9.597-8.972,21.565-7.143,32.918-6.722
		c15.783,0.586,3.143-5.499,66.563-97.039c108.434-156.514,269.102-265.721,443.997-323.319
		c58.478-19.259,40.667-11.902,90.682-23.546c96.961-22.574,259.185-14.473,293.667-6.763c8.165,1.826,16.593,2.538,24.929,3.527
		c2.81,0.334,79.748,16.267,81.441,18.422c6.493,8.261,16.56,9.195,25.256,12.833c4.539,1.899,7.533,5.507,11.178,8.349
		c33.228,25.902,37.128,48.242,36.062,65.944c-2.075,34.434-1.297,51.758-17.008,68.596c-35.924,38.499-78.054,32.715-88.866,33.691
		c-10.387,0.938-10.267,1.245-8.527,11.877c2.899,17.713,17.042,35.816,11.293,70.634c-0.969,5.865-5.35,14.253-4.346,20.614
		c1.267,8.029-3.036,14.589-8.856,19.696c-24.213,21.242-48.202,19.204-58.281,22.399c-7.661,2.428-15.383,1.612-23.196,0.506
		c-6.572-0.93-10.028,2.968-7.14,8.81c8.226,16.638,7.258,34.56,7.758,52.118c0.457,16.018-8.551,27.996-21.797,35.824
		c-43.76,25.862-75.452,7.719-78.281,28.777c-4.106,30.556,8.06,14.604,10.815,48.98c1.548,19.312-0.018,38.673-3.787,57.694
		c-4.117,20.774-28.092,48.959-58.34,59.851c-12.86,4.631-57.577,31.853-181.232,27.933c-2.939-0.093-6.165-0.333-10,1.523
		c91.561,56.315,110.725,81.135,141.888,125.664c16.845,24.071,14.16,50.763,12.034,76.808
		c-1.408,17.262-4.286,35.193-13.555,50.989c-14.148,24.111,24.735,29.353,49.893,115.914c3.421,11.769-1.104,33.757-0.563,44.743
		c0.074,1.505-0.118,3.378-0.955,4.517c-6.341,8.642-5.53,18.86-6.963,28.681c-3.309,22.694-46.666,52.908-58.359,53.796
		c-6.358,0.483-10.888,4.369-16.064,7.172c-4.2,2.274-4.244,5.749-1.792,8.515c7.035,7.94,7.056,19.084,13.559,27.488
		c3.687,4.764,3.107,12.261,5.975,18.321c23.971,50.651,37.387,101.702,47.014,142.198c2.24,9.425,2.702,52.735,0.597,68.263
		c-2.282,16.833-0.893,63.947-45.117,75.445c-56.976,14.813-159.63-12.29-197.19-25.685c-11.793-4.206-22.841-3.098-33.007,7.671
		c-89.869,95.191-243.72,94.126-357.505-58.977c-10.721-14.426-22.171-28.661-30.652-44.64c-5.035-9.484-8.333-19.829-14.771-28.695
		c-8.409-11.579-14.218-24.78-22.553-36.51c-4.766-6.707-7.069-15.134-11.418-22.361c-4.781-7.944-9.163-16.023-11.22-25.353
		c-0.868-3.938-5.912-6.903-6.956-10.865c-3.75-14.227-13.097-25.954-16.756-40.326c-2.336-9.173-8.272-17.309-11.466-26.504
		c-5.467-15.741-23.52-62.396-30.786-77.61c-7.677-16.075-21.006-8.147-21.875-4.181c-6.701,30.601-0.015,11.969,2.823,48.526
		c3.787,48.773,13.661,120.627,0.962,193.943c-4.347,25.098-0.793,28.803-7.496,43.988c-7.338,16.624-4.901,25.451-31.105,51.207
		c-19.837,19.499-45.233-10.946-54.953-34.025c-16.912-40.155-19.916-42.956-20.177-51.099
		c-0.738-23.043-12.706-36.759-7.893-98.049c0.097-1.239,0.754-2.655,0.355-3.679c-5.757-14.817-2.254-30.195-2.551-45.281
		c-1.784-90.536,17.253-58.635-0.649-108.5c-1.65-4.597-7.415-4.982-10.538-0.968c-14.413,18.527-8.321,28.198-20.944,57.523
		c-45.533,105.777-1.644,37.793-103.614,237.637c-14.633,28.677-54.124,77.993-54.898,79.007
		c-8.396,10.994-52.055,53.28-112.905,76.621c-52.013,19.951-116.209,15.502-166.64-15.44
		c-53.436-32.785-52.328-45.84-66.479-41.176c-89.051,29.349-134.337,40.753-193.77,36.933
		c-74.564-4.793-75.032-111.929-54.905-184.585c3.627-13.094,18.177-70.649,40.815-123.991c4.52-10.651,6.038-22.27,11.101-32.762
		c7.021-14.55-51.961-12.264-76.005-52.666c-5.924-9.954-18.237-19.747-20.118-41.324c-5.703-65.428,29.465-109.203,35.47-124.885
		c1.789-4.672,5.038-8.614,8.327-12.405c4.155-4.789,5.428-11.195,9.156-16.234c1.434-1.938-0.124-3.39-1.057-5.006
		c-14.709-25.473-24.82-39.851-24.832-56.649c-0.033-48.892-8.026-73.783,75.042-154.255
		C574.811,767.958,579.949,777.463,623.852,739.995z M1788.579,281.314c5.713,2.329,10.503,3.291,15.505,3.854
		c15.053,1.694,28.527,8.359,42.348,13.898c6.262,9.524,14.278,4.697,20.445,1.106c13.551-7.891,145.699-72.386,264.446-73.729
		c82.689-0.936,78.035,0.004,143.118,9.161c64.421,9.064,90.549,27.533,89.169,10.78c-1.906-23.136,0.395-28.962,10.139-41.014
		c12.644-15.638,74.41-20.914,76.211-38.936c0.684-6.84-4.171-12.306-4.263-18.924c-0.111-7.875-69.969-28.913-84.14-26.18
		c-16.404,3.163-32.42-1.009-48.269-3.558c-37.08-5.963-124.134,2.028-130.527,3.034c-3.952,0.622-7.413,3.092-11.629,3.347
		C2058.604,130.96,1900.838,188.203,1788.579,281.314z M854.217,298.067c0.302-2.05-0.737-2.925-1.713-3.603
		C718.065,201.061,623.93,171.021,467.961,150.707c-85.581-11.146-199.947-13.64-278.323,22.44
		c-14.896,6.857-16.905,22.079-12.607,25.16c12.159,8.717,8.105,12.523,66.296,24.986c12.096,2.591,20.417,10.453,23.692,22.781
		c2.82,10.614,0.587,20.971-1.902,31.317c-1.863,7.743,1.693,11.7,8.64,8.713c45.691-19.644,186.889-52.011,305.699-33.371
		c62.441,9.797,116.117,28.79,120.382,30.024c71.73,20.765,85.706,43.295,105.883,31.757
		C823.692,304.238,828.75,305.165,854.217,298.067z M1452.869,1058.094c2.516,10.154,5.305,19.043,6.824,28.143
		c1.894,11.347,7.823,21.782,7.902,33.356c0.176,25.688,54.511,166.461,100.434,171.059c53.52,5.359,14.015,5.274,91.323,6.087
		c13.215,0.139,28.377-5.906,24.458-13.867c-5.921-12.027-0.589-25.58-5.798-37.568c-0.32-0.737-0.212-2.072,0.266-2.68
		c5.471-6.954,6.824-15.89,11.196-23.279c4.728-7.99,5.114-7.728-1.529-14.495c-0.684-0.697-58.684-60.15-58.684-60.15
		c-19.859-13.932-57.842-42.268-71.92-50.267C1503.033,1063.578,1482.136,1064.74,1452.869,1058.094z M880.415,906.093
		c-272.489-41.375-397.147,172.85-300.326,242.506c8.377,6.026,8.136,6.399,14.519-1.85c1.524-1.969,3.211-3.91,4.268-6.127
		c13.372-28.046,66.799-87.793,103.761-111.404c35.222-22.499,79.679-41.49,109.611-51.709
		c18.543-6.331,19.155-27.902,37.202-42.672C859.875,926.305,867.581,915.204,880.415,906.093z M1070.341,1309.658
		c54.624-7.352,68.978-9.51,81.481-26.494c35.605-48.366,55.037-103.909,66.413-162.253c11.059-56.715,11.26-56.153,0.08-53.796
		c-113.15,23.854-183.259,117.013-220.5,158.864c-3.143,3.532-3.337,6.092,0.548,9.269c16.49,13.481,12.198,40.738,9.826,63.603
		c-0.656,6.326,0.12,8.11,6.419,9.923C1025.638,1311.948,1039.493,1313.81,1070.341,1309.658z M1792.315,890.813
		c11.842,8.609,45.018,39.326,52.002,52.339c5.628,10.487,12.453,16.605,24.97,18.505c11.41,1.732,22.278,7.309,33.263,11.509
		c78.339,29.958,62.744,31.773,80.795,40.288c26.674,12.583,65.955,53.407,88.746,84.599c17.923,24.531,20.643,31.138,26.99,23.277
		c3.636-4.502,39.153-29.961,25.3-85.659C2092.308,906.722,1910.441,857.892,1792.315,890.813z M751.358,383.286
		c0.751-3.042,2.419-6.092-2.372-7.488c-124.13-36.174-281.598-67.53-400.884-13.551c-9.765,4.419-16.834,12.567-26.314,17.312
		c-4.208,2.106-5.885,6.236-3.982,11.174c2.67,6.93,4.922,14.036,7.88,20.836c7.161,16.461,35.472,30.584,46.525,31.391
		c8.436,0.616,48.509,2.887,63.059-4.011c24.346-11.544,84.109-34.255,145.551-39.142c71.145-5.659,109.609,5.191,122.415,7.301
		c12.814,2.112,25.893,3.075,38.658,6.027c3.184,0.736,5.566-0.158,5.659-4.095C747.761,400.265,751.377,391.994,751.358,383.286z
		 M1670.174,677.8c-33.757,0-93.563-0.942-104.864-33.066c-14.011-39.823,15.713-72.434,42.532-69.704
		c14.676,1.494,31.234,21.462,67.754,14.095c38.756-7.819-1.477-101.759-64.894-103.493c-14.791-0.405-15.967-10.189-81.836,108.229
		c-4.769,8.575-11.099,16.38-13.228,26.442c-2.622,12.392-11.57,21.808-16.604,33.242c-30.47,69.207-38.187,90.714-44.627,114.548
		c-1.37,5.069-14.22,52.906-13.763,65.081c1.218-0.093,2.023,0.096,2.381-0.221c15.238-13.501,20.922-25.379,78.089-72.64
		c53.778-44.459,129.556-70.231,142.791-73.271C1669.03,685.866,1670.746,683.628,1670.174,677.8z M2242.255,413.451
		c0-0.185-0.001-0.369-0.001-0.554c17.456,0,36.465-0.58,51.921-8.902c27.954-15.05,29.788-48.7,23.719-52.658
		c-95.963-62.566-236.802-46.755-347.104-15.701c-1.543,0.434-61.277,19.385-61.277,19.385c-5.337,1.471-12.824,4.71-12.99,11.666
		c-0.259,10.836-0.055,32.803,10.394,28.736c1.428-0.556,45.054-11.184,61.641-12.009c1.238-0.062,2.547-0.169,3.683-0.615
		c22.311-8.753,105.032-12.652,156.993,2.316c46.625,13.431,47.331,10.726,73.415,21.944
		C2222.82,415.736,2235.845,413.451,2242.255,413.451z M1226.763,828.423c1.087-13.557-1.472-11.488-3.389-20.336
		c-26.243-121.115-151.078-310.168-169.169-312.914c-40.209-6.105-80.335,20.172-88.282,79.929
		c-0.86,6.469,8.332,19.013,29.407,20.506c40.57,2.874,49.858-28.248,78.072-14.216c34.422,17.121,22.089,55.414,18.025,74.447
		c-3.979,18.634-62.826,32.263-82.812,28.558c-3.627-0.673-7.489-0.183-11.238-0.05c-2.062,0.073-4.796-0.595-5.531,2.22
		c-0.805,3.083,1.549,4.53,3.955,5.475c3.807,1.495,74.07,18.339,111.088,42.192c53.619,34.551,98.092,72.313,112.676,90.49
		C1221.05,826.576,1222.721,828.699,1226.763,828.423z M762.499,1462.62c6.325-1.624,2.802-0.048,21.86-42.105
		c18.148-40.051,18.624-40.855,16.978-47.534c-10.326-41.899-39.662-72.022-88.962-68.786
		C576.078,1313.142,520.54,1524.727,762.499,1462.62z M928.646,1518.507c34.941,7.242,82.02-26.896,109.02-50.986
		c15.671-13.982,25.715-32.795,42.016-46.001c0,0,14.321-26.089,20.544-34.42c28.32-37.905-92.908,48.635-173.253-52.867
		c-2.882-3.641-5.005-3.444-7.605,0.815c-30.534,50.024-36.578,65.393-61.606,117.309c-14.992,31.096-26.128,29.221,14.556,52.127
		C889.712,1514.276,907.621,1521.788,928.646,1518.507z M2031.26,1440.496c31.173-7.616,63.662-16.209,65.764-62.721
		c0.75-16.589-18.281-64.055-67.94-87.39c-10.851-5.099-22.683-6.774-34.026-10.129c-13.751-4.068-27.222-2.821-40.692-0.257
		c-46.543,8.859-64.688,71.926-58.99,80.749c7.463,11.556,12.656,24.289,18.738,36.559c1.943,3.921,5.333,6.982,6.513,11.324
		c8.751,32.173,23.766,24.619,34.359,27.354C1980.568,1442.588,2025.047,1442.014,2031.26,1440.496z M1594.795,1367.932
		c25.481,40.348,19.439,33.112,39.871,53.965c17.21,17.566,11.372,18.339,52.536,47.178c24.44,17.123,50.448,29.87,81.555,27.511
		c16.867-1.279,28.491,4.721,73.978-26.244c11.161-7.598,11.131-13.25,4.011-24.758c-18.576-30.027-72.055-134.306-79.3-134.541
		c-3.456-0.112-5.01,3.42-6.374,6.175c-26.001,52.503-98.038,62.287-155.207,48.854
		C1602.392,1365.256,1599.128,1366.251,1594.795,1367.932z M866.154,1071.763c-51.248,28.166-67.212,99.441-39.62,97.846
		c29.424-1.701,40.855-15.872,53.54-2.117c6.921,7.505,12.413,16.809,10.081,27.098c-3.315,14.62-6.169,43.072-55.018,60.615
		c-12.997,4.668,7.485,12.308,11.875,31.709c2.502,11.059,0.512,16.886,5.431,17.806c3.635,0.68,8.478-11.073,11.675-14.867
		c12.735-15.112,23.597-31.551,34.913-47.679c21.369-30.455,100.527-120.781,105.288-124.92
		c19.146-16.641-2.406-55.831-23.004-62.236C928.457,1038.582,901.181,1052.512,866.154,1071.763z M540.149,489.35
		c-21.542,1.618-42.221,15.659-53.516,22.544c-35.902,21.887-60.6,67.331-40.509,96.7c30.362,44.385,74.422,61.073,129.125,61.529
		c53.018,0.443,104.183-23.792,108.414-76.007c2.586-31.911-34.361-64.86-64.926-56.761c-6.977,1.849-8.073,4.016-6.38,11.292
		c5.352,23.012,6.602,62.547-15.964,69.104c-80.697,23.448-82.343-94.756-60.749-116.74
		C538.356,498.251,540.254,494.326,540.149,489.35z M1856.444,1233.414c-7.415-1.532-14.577-3.965-20.667-8.295
		c-15.959-11.348-37.11-18.094-38.873-42.478c-0.099-1.367-8.766-17.749,7.552-35.174c14.272-15.24,25.733-3.399,53.899-2.025
		c3.939,0.192,8.643-1.212,8.742-5.198c0.147-5.903,1.558-11.925,0.599-17.681c-15.643-93.861-185.852-133.168-196.719-37.875
		c-0.465,4.08,0.458,7.463,3.593,10.071c1,0.832,84.771,86.427,111.331,119.954c48.007,60.597,45.898,61.061,50.811,61.047
		C1838.356,1259.79,1850.478,1248.554,1856.444,1233.414z M2118.219,467.492c7.938,28.682,10.815,18.232,8.243,73.005
		c-0.24,5.107-3.697,9.142-3.849,14.379c-0.776,26.646-19.875,35.662-44.311,41.336c-15.4,3.576-32.525-4.614-38.076-17.965
		c-6.498-15.629-3.933-32.004-3.821-48.167c0.014-2.026,6.724-10.009-2.496-13.68c-27.429-10.919-80.07,24.467-54.766,77.119
		c28.921,60.179,124.906,59.028,172.807,36.385c16.318-7.713,29.592-19.313,42.717-31.477
		c26.435-24.501,27.257-78.548-46.417-119.915C2139.578,473.642,2130.278,468.496,2118.219,467.492z M979.348,764.543
		c-86.776-31.471-228.136-13.825-249.945-5.127c-59.62,23.778-81.638,60.935-90.876,69.755c-1.681,1.605-4.292,2.849-3.665,7.38
		c8.294-3.318,17.249-2.579,25.419-5.354c16.951-5.756,34.631-7.829,52.081-10.793c105.237-17.875,166.306-13.253,243.006,3.06
		c5.556,1.182,7.695-0.276,6.715-6.089C958.695,797.266,966.234,780.405,979.348,764.543z M1687.058,754.83
		c3.323,8.811,6.971,5.299,12.504,19.293c8.581,21.704-4.283,46.411,13.706,38.695c24.717-10.602,97.152-18.148,101.172-18.403
		c98.817-6.257,200.081,13.321,208.897,16.363c1.676,0.578,3.882,2.325,5.851-0.046c-0.996-3.179-3.237-5.44-5.349-7.614
		c-37.824-38.926-75.573-66.14-129.815-69.045c-76.5-4.097-89.824-10.283-187.019,13.967
		C1700.461,749.674,1693.739,751.327,1687.058,754.83z M898.881,586.813c1.583-3.989,1.022-7.459,0.92-10.818
		c-0.709-23.355,2.843-45.825,11.338-67.776c27.199-70.283,85.812-70.572,93.615-78.09c-6.747-11.154-42.787-39.171-85.762-41.794
		c-86.643-5.288-131.519,77.364-30.922,189.265C891.026,580.888,892.844,585.865,898.881,586.813z M1722.233,376.126
		c-34.001,7.411-57.351,29.005-69.928,37.676c-4.672,3.221-3.611,6.662,1.974,8.471c9.056,2.934,48.608,6.454,79.756,50.696
		c19.891,28.254,25.339,71.803,23.849,97.321c-0.637,10.902,9.739,3.512,11.283,0.007c4.982-11.309,14.397-19.457,21.201-29.51
		C1867.55,426.76,1790.518,361.243,1722.233,376.126z M929.065,966.806c1.002,0.52,2.374,2.04,9.18,2.082
		c65.577,0.409,90.823,5.43,126.66,13.562c62.616,14.209,73.916,33.56,89.381,22.763c0.889-0.621,2.436-0.416,3.674-0.397
		c9.337,0.142,30.178-11.901,44.783-11.919c9.294-0.011,17.8-3.358,27.423-3.628c-13.756-26.895-160.231-108.593-284.47-35.449
		C939.94,957.211,932.365,959.363,929.065,966.806z M1747.682,949.997c-26.472-23.994-61.207-34.014-96.556-38.565
		c-98.815-12.721-201.431,57.842-205.894,70.677c58.124-2.454,80.752,22.935,102.24,12.456
		c43.982-21.448,82.202-29.775,111.31-37.384c27.846-7.279,30.276,1.432,55.47-4.161
		C1725.105,950.611,1736.255,950.205,1747.682,949.997z M725.575,674.962c102.589-10.705,110.825-3.219,150.597-2.5
		c0.688-3.096-0.293-4.005-1.266-4.683c-12.863-8.953-23.612-20.393-35.684-30.267c-33.652-27.525-70.543-97.489-78.421-129.759
		c-1.471-6.025-4.919-10.278-12.459-10.375c-6.067-0.078-26.187-7.999-41.942-6.83c0.624,1.888,0.728,2.866,1.225,3.564
		c7.233,10.147,8.992-0.671,27.181,40.737c15.727,35.802,10.9,89.196-2.034,124.525C730.983,664.26,726.822,668.067,725.575,674.962
		z M1786.645,655.825c7.224,2.731,43.597-5.188,72.311-4.043c22.153,0.883,44.372-0.893,66.515,1.31
		c2.062,0.205,4.69,1.372,6.142-0.708c1.837-2.631-0.754-4.675-1.992-6.663c-24.567-39.449-29.676-113.799,1.661-148.928
		c6.609-7.409,9.802-16.231,14.602-24.606c-13.225-3.783-29.543,4.59-43.514,7.259c-7.21,1.377-1.762,1.79-24.349,58.374
		c-9.03,22.622-24.781,62.303-85.173,110.282C1790.47,649.992,1787.796,651.776,1786.645,655.825z M1296.335,730.051
		c-1.835-15.657-14.443-77.516-37.042-115.547c-11.521-19.388-21.844-26.202-29.06-33.466c-5.709-5.748-13.52-7.412-20.483-10.697
		c-5.752-2.713-9.884,4.549-13.474,4.781c-6.075,0.393-4.776,4.01-3.769,7.933c1.748,6.811,24.032,50.709,27.001,58.784
		c30.22,82.19,41.11,137.23,41.11,137.23c3.169,5.779,7.542,3.887,8.6-0.131c3.855-14.626,12.429-26.244,23.264-36.418
		C1298.992,736.41,1296.795,733.983,1296.335,730.051z M1462.97,581.007c-0.319-2.914,1.549-6.044-1.157-6.754
		c-7.029-1.844-13.005-7.251-21.793-2.066c-21.341,12.59-41.237,40.521-43.436,47.897c-3.645,12.225-9.264,23.67-12.619,36.08
		c-2.227,8.24-15.621,63.705-16.528,69.896c-2.447,16.702,19.276,7.16,32.786,45.536c0.763,2.169,1.322,4.507,4.04,4.21
		c2.424-0.265,2.179-2.649,2.288-4.479c1.655-27.91,42.305-172.885,55.743-185.797
		C1463.325,584.537,1462.852,581.98,1462.97,581.007z M619.009,1233.311c8.363-1.589,27.346-41.639,109.167-33.725
		c7.631,0.738,15.127,1.416,23.232,1.148c-20.609-80.366-7.066-62.253-3.918-105.238
		C693.492,1131.764,653.624,1179.093,619.009,1233.311z M1933.633,1076.293c0.211,2.245,0.135,3.201,0.405,4.046
		c7.23,22.728,4.348,46.156,4.709,69.341c0.211,13.537-8.109,28.125-3.849,30.691c5.238,3.155,6.843-1.257,16.442-3.871
		c10.5-2.86,48.037-2.563,62.129,2.035c36.804,12.011,35.732,18.543,39.405,14.718c3.118-3.246-0.903-7.942-4.069-11.114
		C2023.274,1156.558,1987.088,1106.615,1933.633,1076.293z M1080.532,798.561c14.389,42.428,1.286,52.472,11.839,52.066
		c24.37-0.938,103.075,41.191,121.182,43.861C1174.457,856.301,1132.157,822.564,1080.532,798.561z M1589.487,788.519
		c-49.335,22.427-87.458,58.448-124.495,96.086c7.165-2.315,15.442-1.324,21.017-6.482c11.973-11.077,26.659-17.776,41.464-22.449
		c16.193-5.111,31.65-13.077,48.857-14.878C1587.564,839.62,1570.029,812.037,1589.487,788.519z M1332.964,819.945
		c24.616,1.677,29.617-23.417,15.917-32.668c-9.465-6.392-23.001-5.409-32.094,1.707c-4.845,3.792-8.627,13.534-5.611,17.472
		C1316.604,813.54,1322.152,821.334,1332.964,819.945z"/>
</g>
</svg>
