<?xml version="1.0" encoding="UTF-8" standalone="no"?>
<svg xmlns:rdf="http://www.w3.org/1999/02/22-rdf-syntax-ns#" xmlns="http://www.w3.org/2000/svg" height="856.92pt" width="1280pt" version="1.1" xmlns:cc="http://creativecommons.org/ns#" xmlns:dc="http://purl.org/dc/elements/1.1/" viewBox="0 0 1280 856.9248">
<path d="m609.64 0c-18.89 0.61055-26.05 20.824-41.58 27.453-20.9 2.981-32.86-21.419-53.42-20.952-28.028-3.0887-51.301 18.755-62.901 42.272-20.134 34.579-23.739 76.592-15.27 115.03 5.222-11.414 8.8561-23.453 13.223-35.19 15.688-36.396 51.035-66.586 91.46-69.581 13.116-2.3273 24.444 5.5457 34.981 12.025 14.38 9.4025 31.764 14.502 48.996 12.642 24.867-2.787 47.917-14.043 72.863-16.464 27.554-1.4438 58.563 2.378 79.422 22.332 9.1511 8.2963 13.985 20.536 23.632 28.214 6.34-36.296-6.99-74.826-33.97-99.765-13.76-12.29-34.22-18.46-51.99-11.859-13.21 4.705-22.44 16.211-35.19 21.721-8.92 2.988-16.8-4.339-23.34-9.237-9.19-8.8209-19.93-16.636-32.82-18.64h-14.093zm337.62 66.954c-1.7464 0.004-3.4894 0.0442-5.2245 0.12009-46 3.5986-80.441 40.053-105.96 75.213 29.393 0.63929 56.616-15.049 85.75-18.489 17.505-3.0815 38.58-2.8658 51.675 11.04 17.268 17.555 15.45 45.712 4.798 66.263-7.068 12.549-15.07 25.204-17.175 39.728-1.5156 24.35 22.346 43.5 16.233 68.396-6.9172 29.357-28.652 53.312-53.203 69.732-17.742 15.802-32.41 34.672-48.4 52.169-16.485 16.571-40.368 28.696-64.201 23.646-13.748-1.7814-27.51-3.5482-41.33-4.7262 7.5852 21.254 25.786 38.974 47.026 46.459 23.574 4.2164 51.02-2.1686 66.945-21.038 9.9124-15.925 19.546-32.044 29.796-47.76 11.694-17.131 30.527-28.531 50.704-32.625 25.356-5.4878 50.073-17.038 68.066-36.08 13.691-13.906 20.105-34.68 16.111-53.865-3.807-30.355-22.152-56.163-28.574-85.75-0.4023-17.103 10.307-32.043 14.092-48.42 7.6714-25.83 3.5989-56.573-15.285-76.714-18.505-19.226-45.652-27.359-71.848-27.301zm-566.21 11.807c-1.5697-0.021-3.1924 0.16678-4.8642 0.59596-27.927 3.2323-45.51 32.388-46.451 58.591-0.94097 12.146 6.4646 23.661 3.6633 35.728-14.1 17.886-41.194 21.993-51.035 44.009-10.322 22.533 4.798 46.014 18.589 63.189 23.165 27.065 50.568 52.514 84.04 65.961 6.4287-23.409 2.78-51.2 21.24-69.897 15.415-16.075 37.38-23.395 58.577-28.172-21.879-17.785-43.364-36.813-59.058-60.48-8.1167-13.023-15.386-28.868-11.306-44.505 2.3129-15.336 13.612-29.228 10.66-45.21-4.6635-9.2956-13.067-19.664-24.055-19.81zm169.56 35.356c-1.4606 0.0283-2.8945 0.17688-4.2637 0.44444-24.551 3.0456-38.565 27.926-46.732 48.857-12.161 35.067 9.6532 70.171 35.835 91.985 33.386 27.762 73.554 51.473 117.84 54.016 5.9762-17.483 4.7832-38.803-8.5556-52.695-15.4-14.086-37.962-16.686-57.859-14.007-19.257-0.589-30.901-20.694-35.391-37.244-5.3226-27.611 18.762-48.334 20.917-74.472-0.0251-11.426-11.571-17.084-21.796-16.886zm176.19 2.8451c-2.4267-0.0294-4.8711 0.12839-7.3232 0.49382-16.219 0.59619-30.347 8.7053-44.886 14.84-8.7776 4.6114-17.915-0.58115-26.815-1.5724-31.741-1.2283-57.944 30.24-56.773 60.789 12.304-2.4709 22.087-13.253 35.045-13.763 16.226-0.40224 33.566-1.9753 47.242-11.6 6.8094-3.6561 14.101-10.602 22.368-7.1684 17.038 7.7863 31.77 21.98 51.523 22.49 11.076-0.31605 24.321-0.74792 31.648-10.33 6.1558-10.767 1.4081-24.723-7.1324-32.761-11.791-11.816-27.91-21.212-44.897-21.418zm164.78 52.75c-18.367 1.4581-37.358 10.796-46.869 27.05-8.325 14.33-1.2853 32.165 9.1874 43.328 0.81885 1.7095 5.725 4.7192 2.385 6.321-25.751 14.833-51.862 29.055-77.706 43.715-21.29 12.513-41.337 29.141-52.521 51.609 25.076-16.162 51.17-32.51 80.857-38.342 17.282-2.9666 34.838 1.4079 52.171-1.0056 22.813-2.0759 45.748-11.205 61.235-28.544 13.77-14.732 19.63-35.182 20.535-54.95 2.5571-26.749-23.941-49.045-49.275-49.182zm-203 15.395c-1.4042 0.0214-2.837 0.20606-4.2862 0.57239-16.047 3.5556-39.334 18.539-31.455 37.675 9.5174 11.751 28.33 10.38 41.116 5.7969 7.4774-6.8453 21.247-15.135 15.551-27.022-2.6775-9.3333-11.096-17.171-20.926-17.021zm115.24 14.127c-12.865 9.2516-23.991 21.018-38.106 28.495-17.182 6.4934-37.955 6.9093-51.157 21.361-17.182 14.998-17.132 39.111-22.246 59.582 16.571-18.697 40.915-27.934 63.972-36.532 29.285-11.177 47.005-42.674 47.536-72.907zm-644.58 46.24c-1.5089 0.0219-3.0283 0.10348-4.5578 0.24804-46.948 5.3226-89.879 39.003-138.59 26.972-5.092-0.92-14.014-9.26-16.09-1.1v3.211c17.634 42.774 38.185 87.402 77.59 114.48 37.15 26.203 87.122 31.627 129.87 17.218 3.3185-1.1636 7.9944-2.3344 6.9888-7.1111 0.85477-18.568 0.10774-37.244 2.0112-55.754 3.4406-18.008 11.314-34.744 18.346-51.552 2.8229-9.855-7.9594-16.528-14.158-22.166-18.451-11.805-38.783-24.79-61.418-24.461zm990.75 36.338c-39.853 0.30157-79.603 34.4-77.837 75.77 0.2011 17.131 15.041 29.608 30.082 34.966 28.164 10.343 59.704 6.8599 87.531-2.9663 36.209-13.138 65.983-39.363 90.247-68.648v-1.8968c-5.064-9.7903-18.245-8.4615-27.274-11.636-28.531-4.9634-55.438-15.622-83.358-22.906-6.3454-1.8768-12.869-2.7328-19.39-2.6835zm-672.93 9.2952c-1.3234 0.00069-2.6512 0.0285-3.9854 0.083-14.775 1.7742-29.257 7.9652-40.412 17.878-12.34 11.335-10.358 33.465 3.4265 42.832 14.567 9.7042 32.891 10.667 49.843 10.43 17.921-0.61773 39.398-6.4498 54.116 6.9966 13.446 14.502 19.595 34.119 31.174 49.979 7.3625 7.5852 17.289 12.053 27.223 15.221 33.918 9.5892 70.048 5.796 103.99 15.184 5.0712 1.8029 2.7223-1.9825 1.5443-3.6992-29.15-45.16-73.85-77.11-116.84-108.02-33.22-21.54-69.08-46.92-110.1-46.9zm426.84 29.673c-1.6771 0.0509-3.2916 0.26644-4.7273 0.62065-14.782 2.1836-27.784 10.027-41.912 14.373-16.7 6.3497-34.485 3.3338-51.538 0.52525-36.31-1.0056-60.926 30.276-84.938 52.364 27.784 0.70393 49.448 20.083 74.466 29.292 23.409 9.7042 55.603 3.8575 68.755-19.415 8.5764-14.15 17.296-30.398 33.378-37.028 12.664-3.9075 24.193-15.911 22.332-29.889-0.1109-8.1823-8.5487-11.062-15.816-10.842zm-593.11 25.04c-16.47 4.7551-19.538 25.09-23.323 39.327-7.5636 38.924 20.421 72.253 23.998 109.79-0.77576 11.421-2.8301 22.741-3.376 34.198 14.761-1.53 28.926-10.243 44.039-6.4792 53.269 10.106 91.668 52.02 139.84 73.561 40.131 19.854 90.304 23.258 129.95 0.54544 27.899-14.811 43.686-47.738 38.845-78.776-0.9266-6.6155-4.6687-13.015-10.796-15.989-14.768-4.7982-30.341-6.5937-45.073-11.514-34.636-13.633-64.589-38.221-85.492-68.949-6.8669-10.738-18.489-19.157-31.62-19.143-15.867 1.2211-31.72 2.7158-47.587 3.8148-31.727 0.589-61.084-14.855-84.967-34.558-14.294-8.8638-26.993-25.039-44.44-25.829zm701.71 77.879c-2.3306-0.045-4.6772 0.0967-7.0225 0.44333-14.079 3.1533-24.436 14.381-34.176 24.236-17.225 18.683-33.537 38.242-51.688 56.056-24.135 22.914-57.809 36.13-91.217 33.437-43.615-2.435-83.445-23.511-118.69-47.861-2.4278 5.5668-4.1228 11.478-4.798 17.526-1.9322 40.282 8.5553 81.814 32.819 114.44 16.449 24.041 42.889 41.468 72.001 45.066 34.844 3.3257 73.482 4.6902 103.24-16.966 19.969-15.989 37.897-34.449 56.716-51.76 6.8453-5.6242 15.321-8.8781 23.962-10.487 24.982-7.1686 50.547-19.516 64.927-42.128 18.776-29.852 15.392-70.652-4.8418-98.953-9.3522-13.218-24.918-22.733-41.232-23.048zm134.42 38.981c-2.4208-0.029-4.8511 0.0503-7.2862 0.24354-10.861 0.0718-23.086 6.1987-24.551 18.051-1.336 13.389 3.0741 26.484 3.3255 39.837-0.022 24.788-3.4914 50.323-15.149 72.468 13.842 2.3129 27.77 4.5832 41.719 6.2065 40.009-0.51717 71.434-27.281 105.6-44.196 3.9003-2.277 11.801-5.7751 9.3591-11.493-11.536-22.238-28.516-41.554-48.901-56.092-18.155-14.393-40.711-24.745-64.112-25.025zm-942.16 22.235c-3.4781-0.0453-6.928 0.0541-10.303 0.26151-26.713 3.7351-47.077 24.271-61.615 45.597-15.587 24.824-31.64 49.455-46.444 74.703 19.746 4.1589 39.541 8.1176 59.273 12.305 26.656 8.8278 53.348 18.043 80.988 23.33 33.329 2.3129 67.915-7.7286 93.673-29.328-3.9937-9.9412-18.417-8.0384-26.663-12.614-20.27-9.4168-33.558-29.643-41.251-49.985-6.9244-16.722-2.0256-35.556-4.633-52.615-12.349-8.5499-27.952-11.458-43.024-11.654zm223.68 126.54c-39.269 7.0896-68.296 41.575-76.441 79.536-6.2779 28.488-11.227 57.708-11.486 86.856 10.609-3.8429 19.085-12.757 30.47-14.761 24.889-4.1877 49.993 2.9014 74.969-0.4243 46.28-2.6649 90.541-27.302 117.19-65.192 4.396-6.3641 7.721-14.962 3.9428-22.375-7.0393-8.5334-19.479-8.491-29.586-8.5556-31.569 2.6433-66.507-4.4676-89.191-28.071-8.74-7.18-12.86-20.03-19.86-27.02zm240.76 12.361c-2.5715 14.761-4.9639 32.811-3.046 48.887 5.1789 67.915 37.789 130.16 77.432 184.2h2.5645c14.876-9.9125 28.258-22.848 37.56-38.184 3.9865-6.7232-4.2602-12.003-7.0831-17.29-42.157-55.115-74.013-117.42-107.43-177.61z"/>
</svg>
